<?xml version="1.0" encoding="UTF-8"?>
<svg version="1.1" xmlns="http://www.w3.org/2000/svg" width="852" height="852">
<path d="M0 0 C2.076205 1.79768969 4.13207714 3.61583111 6.1875 5.4375 C7.06019531 6.18773437 7.93289063 6.93796875 8.83203125 7.7109375 C20.26439004 17.6849954 29.62396536 28.96575398 38.1875 41.4375 C38.61417969 42.0557666 39.04085937 42.6740332 39.48046875 43.31103516 C66.31757501 82.73061547 73.43222529 128.68345419 73.25 175.3125 C73.24497407 177.56119692 73.2404131 179.80989493 73.23632812 182.05859375 C73.22541117 187.5182533 73.20876001 192.97787143 73.1875 198.4375 C74.44006592 198.69781006 75.69263184 198.95812012 76.9831543 199.22631836 C82.56673813 200.46972234 87.99647198 202.12126173 93.45703125 203.81640625 C94.52297516 204.1444223 95.58891907 204.47243835 96.68716431 204.81039429 C100.12593194 205.86989196 103.5630187 206.93472316 107 208 C109.374395 208.73326874 111.74882547 209.46642263 114.12329102 210.19946289 C127.06106534 214.19921925 139.9808546 218.24659896 152.86206055 222.42504883 C160.49553371 224.90107295 168.14716139 227.31198821 175.8125 229.6875 C176.96427734 230.04610107 178.11605469 230.40470215 179.30273438 230.77416992 C185.9497394 232.8377855 192.60567474 234.86686885 199.27435303 236.85943604 C203.10881665 238.00745121 206.93976853 239.16693952 210.77044678 240.32751465 C212.65984035 240.89672835 214.55082371 241.46069388 216.44342041 242.01916504 C219.11099914 242.80681523 221.77254725 243.61247316 224.43359375 244.421875 C225.22925247 244.65185181 226.02491119 244.88182861 226.84468079 245.11877441 C232.96052821 247.00922682 237.32283526 249.39209103 240.77636719 255.0324707 C241.17500977 255.96663818 241.57365234 256.90080566 241.984375 257.86328125 C242.45834717 258.94834961 242.93231934 260.03341797 243.4206543 261.15136719 C243.92121338 262.33891602 244.42177246 263.52646484 244.9375 264.75 C245.49142482 266.02976092 246.04722893 267.30870977 246.60473633 268.58691406 C247.50462744 270.6511902 248.40302823 272.71602 249.29573059 274.78341675 C251.61335556 280.14874473 253.99238358 285.48415343 256.40234375 290.80859375 C256.94612923 292.01002014 256.94612923 292.01002014 257.50090027 293.23571777 C258.24681422 294.88301561 258.99286369 296.53025209 259.73904419 298.1774292 C266.81503855 313.81293778 273.75711958 329.50525257 280.63897705 345.22702026 C285.46606504 356.25438131 290.3201301 367.26817471 295.25 378.25 C295.76892822 379.40798096 296.28785645 380.56596191 296.82250977 381.7590332 C299.17073477 386.9890844 301.53800033 392.20882605 303.94921875 397.41015625 C304.58428345 398.79013794 304.58428345 398.79013794 305.23217773 400.19799805 C306.00110468 401.86590137 306.7772329 403.53051654 307.56274414 405.19067383 C309.59414065 409.60758141 310.8959583 413.51166 311.1875 418.4375 C309.67233372 422.45269063 308.7819747 424.04118353 305.1875 426.4375 C302.35766801 426.60943073 299.62868127 426.66958437 296.80078125 426.6328125 C295.98377243 426.6299826 295.16676361 426.62715271 294.32499695 426.62423706 C291.71651541 426.61304541 289.1083777 426.5879429 286.5 426.5625 C284.73112475 426.55246888 282.96224412 426.54334326 281.19335938 426.53515625 C276.85794051 426.51310942 272.52277855 426.4785867 268.1875 426.4375 C267.8874707 427.05391357 267.58744141 427.67032715 267.27832031 428.30541992 C262.23604122 438.16088619 253.82146522 442.1544194 244.1875 446.4375 C242.85150657 447.09881972 241.51757347 447.76435306 240.1875 448.4375 C240.18603344 449.47356793 240.18456688 450.50963587 240.18305588 451.5770998 C240.14643063 476.80858266 240.08694129 502.03993309 240.00359726 527.27130604 C239.9638195 539.47310921 239.93142054 551.674848 239.91650391 563.87670898 C239.90348091 574.51415873 239.87649949 585.15146674 239.83288693 595.78883666 C239.81028693 601.41916523 239.79458846 607.04931908 239.79561615 612.67969704 C239.79636361 617.98456749 239.7783779 623.28905193 239.74633217 628.59382248 C239.7378482 630.53554078 239.73607297 632.47730245 239.74169731 634.41903114 C239.77588574 648.04192398 239.08311736 660.01411638 229.1875 670.4375 C225.08519196 674.22514236 221.32955833 676.53475065 216.0625 678.4375 C215.31154053 678.71964355 214.56058105 679.00178711 213.78686523 679.29248047 C210.9265732 680.35834272 208.05795711 681.39931436 205.1875 682.4375 C203.92235148 682.89612631 202.65721547 683.35478712 201.39208984 683.81347656 C195.43612616 685.97090462 189.47777562 688.1216588 183.51660156 690.26464844 C173.09294256 694.01348379 162.69258271 697.81970202 152.3125 701.6875 C151.60335449 701.95162689 150.89420898 702.21575378 150.16357422 702.48788452 C147.19776936 703.59254383 144.23201903 704.69734926 141.26638794 705.80247498 C131.76642314 709.34149658 122.25881521 712.85983878 112.75 716.375 C111.8052179 716.72429565 110.86043579 717.07359131 109.88702393 717.43347168 C92.66505694 723.79873326 75.42748591 730.12125695 58.1875 736.4375 C23.44839465 749.16522784 -11.25662788 761.98308756 -45.92724609 774.89624023 C-53.50164404 777.71732908 -61.07622883 780.53779847 -68.65625 783.34375 C-69.81825928 783.77397461 -70.98026855 784.20419922 -72.17749023 784.64746094 C-74.34276197 785.44744524 -76.50890072 786.24508796 -78.67602539 787.04003906 C-83.96765022 788.98593997 -89.22830134 790.98808477 -94.46484375 793.078125 C-95.5525708 793.50552979 -96.64029785 793.93293457 -97.76098633 794.37329102 C-99.80249513 795.17774998 -101.83813951 795.99734442 -103.8659668 796.83569336 C-104.77902588 797.19284424 -105.69208496 797.54999512 -106.6328125 797.91796875 C-107.81254639 798.39592896 -107.81254639 798.39592896 -109.01611328 798.88354492 C-117.44106898 800.55250114 -125.22751462 797.10521796 -132.98046875 794.125 C-134.7379393 793.46403572 -134.7379393 793.46403572 -136.53091431 792.78971863 C-139.04735223 791.84186813 -141.56207002 790.89048647 -144.07461548 789.9324646 C-148.05128219 788.41629929 -152.03328918 786.91453699 -156.01635742 785.4152832 C-160.07296447 783.88767516 -164.12928078 782.35932883 -168.18373108 780.82600403 C-179.05400878 776.71529668 -189.94554138 772.66410615 -200.85073853 768.64697266 C-203.63877734 767.61992475 -206.42628071 766.59143646 -209.21362305 765.5625 C-212.89957901 764.20187548 -216.5856998 762.84169933 -220.27197266 761.48193359 C-228.82492448 758.3265032 -237.37564753 755.16504071 -245.92660522 752.00421143 C-249.75567063 750.58887645 -253.58484422 749.17383427 -257.41401672 747.75878906 C-266.14083102 744.53384276 -274.86739291 741.3082145 -283.59375 738.08203125 C-301.26831974 731.54787419 -318.94343371 725.01520533 -336.625 718.5 C-337.37923248 718.22207611 -338.13346497 717.94415222 -338.91055298 717.6578064 C-348.45598474 714.14104169 -358.00428857 710.63215891 -367.5546875 707.12890625 C-378.94221116 702.95169184 -390.32762685 698.76877904 -401.71057129 694.57910156 C-403.78624842 693.81519095 -405.86201407 693.05152084 -407.93786621 692.28808594 C-413.97783549 690.06655324 -420.01596918 687.84015938 -426.05142212 685.60638428 C-427.91214173 684.91847127 -429.77343707 684.23211323 -431.63534546 683.54742432 C-434.20775043 682.601075 -436.77793791 681.64892878 -439.34765625 680.6953125 C-440.09127411 680.42315918 -440.83489197 680.15100586 -441.6010437 679.87060547 C-452.74799723 675.71240101 -461.08494595 670.92472113 -466.25 659.625 C-468.50403156 654.07583709 -468.95502938 649.19268461 -468.93275452 643.21185303 C-468.93360894 642.37539065 -468.93446337 641.53892827 -468.93534368 640.67711854 C-468.93699265 637.87033598 -468.93148662 635.063613 -468.92602539 632.25683594 C-468.92574337 630.24641929 -468.92590155 628.23600253 -468.9264679 626.22558594 C-468.92675528 620.7631781 -468.92086805 615.30079214 -468.91389394 609.8383894 C-468.90765061 604.13153888 -468.90705582 598.42468788 -468.90586853 592.71783447 C-468.90275811 581.90900962 -468.8945486 571.10019485 -468.88451904 560.29137444 C-468.87334894 547.9868013 -468.86784519 535.68222769 -468.86282361 523.37765074 C-468.85236577 498.06426156 -468.8347719 472.75088134 -468.8125 447.4375 C-469.43241318 447.23376266 -470.05232635 447.03002533 -470.69102478 446.82011414 C-471.50317947 446.55165176 -472.31533417 446.28318939 -473.15209961 446.0065918 C-473.95763779 445.74097946 -474.76317596 445.47536713 -475.59312439 445.20170593 C-483.63777562 442.43166098 -491.8502323 437.02732324 -495.9230957 429.34179688 C-498.33937581 426.90647127 -500.14782075 426.9771498 -503.48725891 426.96009827 C-504.61698372 426.98178322 -504.61698372 426.98178322 -505.76953125 427.00390625 C-507.37304782 426.99429667 -508.97656343 426.98452596 -510.58007812 426.97460938 C-513.10143195 426.98319292 -515.62252938 426.99997821 -518.14379883 427.0222168 C-520.58204587 427.03679418 -523.01883499 427.02144182 -525.45703125 427.00390625 C-526.57764702 427.02862755 -526.57764702 427.02862755 -527.72090149 427.05384827 C-531.59950381 427.01710237 -534.23821976 426.51233014 -537.2824707 424.16943359 C-540.66270836 420.51944233 -540.66270836 420.51944233 -540.6484375 417.16015625 C-540.17901773 409.95840835 -536.68573802 403.59955787 -533.57681274 397.21563721 C-531.59176121 393.13748965 -529.67117086 389.0288345 -527.73828125 384.92578125 C-527.33278549 384.06994446 -526.92728973 383.21410767 -526.50950623 382.33233643 C-522.01846407 372.82807011 -517.8187766 363.20063838 -513.625 353.5625 C-512.11501798 350.10210437 -510.60292449 346.64263547 -509.08984375 343.18359375 C-508.54222885 341.9313652 -508.54222885 341.9313652 -507.98355103 340.65383911 C-504.06808568 331.71440897 -500.04900125 322.82298446 -496.01245117 313.93774414 C-492.86372793 307.00240853 -489.74851091 300.05359219 -486.671875 293.0859375 C-486.31904449 292.28781143 -485.96621399 291.48968536 -485.60269165 290.66737366 C-483.89426441 286.80204787 -482.18961809 282.93513856 -480.49169922 279.06518555 C-477.30985349 271.83929906 -474.03869294 264.65947212 -470.5859375 257.55859375 C-470.26734772 256.88635269 -469.94875793 256.21411163 -469.62051392 255.52149963 C-466.91537673 250.05346543 -464.85263522 248.18098313 -459.16943359 246.10986328 C-457.68579821 245.65091968 -456.19940764 245.20082474 -454.7109375 244.7578125 C-453.89901947 244.50900833 -453.08710144 244.26020416 -452.25057983 244.00386047 C-449.56508019 243.1826779 -446.87631803 242.37274413 -444.1875 241.5625 C-442.29433217 240.98532219 -440.40143247 240.40726426 -438.50878906 239.82836914 C-434.57104124 238.62476151 -430.63216272 237.42496606 -426.69238281 236.22802734 C-418.50938171 233.73950055 -410.33828843 231.21265674 -402.16824341 228.68197632 C-399.54919088 227.87087828 -396.9297625 227.06100247 -394.31030273 226.2512207 C-383.40290013 222.87648906 -372.51099459 219.4550334 -361.62756348 216.00384521 C-349.26605259 212.0844269 -336.89624408 208.19508506 -324.4914856 204.41439819 C-323.05757424 203.97718185 -321.62403038 203.53875814 -320.19088745 203.09902954 C-318.22219041 202.49564314 -316.25200514 201.89740618 -314.28125 201.30078125 C-313.17201172 200.96344971 -312.06277344 200.62611816 -310.91992188 200.27856445 C-307.89344184 199.45940797 -304.91231304 198.89553295 -301.8125 198.4375 C-301.82249275 197.40204544 -301.82249275 197.40204544 -301.83268738 196.34567261 C-301.89365866 189.73030588 -301.93890002 183.11502135 -301.96793652 176.49943352 C-301.98336787 173.10105959 -302.00417326 169.70292417 -302.03881836 166.3046875 C-302.47652221 119.8909142 -292.44375943 75.58292057 -264.8125 37.4375 C-264.04550781 36.365 -263.27851563 35.2925 -262.48828125 34.1875 C-252.8226756 21.15091453 -241.72335668 9.28953453 -228.8125 -0.5625 C-227.925625 -1.31144531 -227.03875 -2.06039062 -226.125 -2.83203125 C-210.30859419 -15.85112061 -191.38497842 -25.63982144 -171.8125 -31.5625 C-170.94028809 -31.82998047 -170.06807617 -32.09746094 -169.16943359 -32.37304688 C-162.76383147 -34.30552666 -156.3232302 -36.02183001 -149.8125 -37.5625 C-149.05098633 -37.74329102 -148.28947266 -37.92408203 -147.50488281 -38.11035156 C-97.40219351 -49.37617754 -38.84030926 -32.94828598 0 0 Z " fill="#402B1E" transform="translate(540.8125,46.5625)"/>
<path d="M0 0 C5.30123559 4.23382464 10.20936949 8.71633002 14.890625 13.62109375 C16.0971875 14.82765625 16.0971875 14.82765625 17.328125 16.05859375 C18.17375 16.90421875 19.019375 17.74984375 19.890625 18.62109375 C20.43976563 19.11222656 20.98890625 19.60335937 21.5546875 20.109375 C44.79702202 41.67787885 58.22994769 75.25439365 64.890625 105.62109375 C65.13886174 106.73767113 65.38709848 107.8542485 65.64285755 109.00466156 C67.71355964 119.04112747 68.3063895 128.54183878 68.23120117 138.76757812 C68.23035229 140.41523727 68.23083513 142.06289754 68.23252869 143.71055603 C68.23337987 148.12899184 68.21589839 152.54717699 68.19480681 156.96555519 C68.17589168 161.60328482 68.174278 166.24102192 68.17073059 170.87878418 C68.16145329 179.6366747 68.13689873 188.39445118 68.10668212 197.15229177 C68.07300276 207.13310974 68.05661827 217.11393351 68.04159582 227.09479427 C68.0103447 247.60362411 67.95766932 268.11235171 67.890625 288.62109375 C63.89064863 290.66217038 60.09523235 292.30282585 55.78515625 293.57421875 C54.64771973 293.91388672 53.5102832 294.25355469 52.33837891 294.60351562 C50.63174072 295.1072168 50.63174072 295.1072168 48.890625 295.62109375 C46.85223374 296.23880753 44.81445333 296.85854127 42.77734375 297.48046875 C41.76953857 297.78742676 40.7617334 298.09438477 39.72338867 298.41064453 C29.96106203 301.3917043 20.24606434 304.47146913 10.578125 307.74609375 C3.3723803 310.18343398 -3.84201517 312.46236714 -11.171875 314.49609375 C-28.12110689 319.21686923 -44.79249518 324.88879 -61.50524902 330.37747192 C-65.42361243 331.66356825 -69.34297843 332.9465947 -73.26239014 334.22949219 C-76.13134091 335.17030149 -78.99855087 336.11628545 -81.86572266 337.0625 C-83.64608326 337.64606402 -85.42651612 338.22940763 -87.20703125 338.8125 C-88.01824936 339.08183853 -88.82946747 339.35117706 -89.66526794 339.62867737 C-97.41610138 342.15591248 -102.41244866 342.98301691 -110.26953125 340.0859375 C-111.04693665 339.8123793 -111.82434204 339.53882111 -112.62530518 339.25697327 C-114.28451139 338.67207984 -115.94164694 338.0812845 -117.59683228 337.48510742 C-121.92907866 335.9263428 -126.27749714 334.41401764 -130.625 332.8984375 C-131.47165726 332.60222504 -132.31831451 332.30601257 -133.19062805 332.00082397 C-138.88693534 330.01709906 -144.59540739 328.18771932 -150.421875 326.62109375 C-160.7026788 323.83339527 -170.83588513 320.60105418 -180.984375 317.37109375 C-181.87298218 317.08838623 -182.76158936 316.80567871 -183.67712402 316.5144043 C-196.79431053 312.33791212 -209.89899211 308.12256974 -222.99609375 303.88354492 C-229.48262309 301.78529597 -235.97356127 299.70527741 -242.484375 297.68359375 C-249.53609507 295.4914286 -256.51475863 293.29141286 -263.3671875 290.53125 C-264.70354248 289.99383179 -264.70354248 289.99383179 -266.06689453 289.44555664 C-266.74091309 289.17348389 -267.41493164 288.90141113 -268.109375 288.62109375 C-268.20327884 267.63542003 -268.27357792 246.64978149 -268.31662369 225.66393948 C-268.33715171 215.91740791 -268.36508291 206.17100772 -268.41113281 196.42456055 C-268.45130237 187.91855062 -268.47687849 179.41263594 -268.48572898 170.90653378 C-268.49089338 166.41257449 -268.50282139 161.91888744 -268.53229523 157.4250164 C-268.88449307 101.49168693 -253.60211917 52.43865533 -213.734375 11.93359375 C-193.32187692 -8.31003683 -167.97797175 -22.47210245 -140.109375 -29.37890625 C-138.73845703 -29.72381104 -138.73845703 -29.72381104 -137.33984375 -30.07568359 C-89.48138396 -41.7788202 -38.98345769 -29.82528358 0 0 Z " fill="#FEFDFD" transform="translate(526.109375,59.37890625)"/>
<path d="M0 0 C2.80736218 1.40368109 3.16346559 3.10513493 4.5 5.9375 C7.03554889 11.13690266 9.73170649 16.20573399 12.5625 21.25 C16.54757484 28.35995205 20.44773075 35.51147458 24.3125 42.6875 C29.13799254 51.63522619 34.08766484 60.50353133 39.11547852 69.33886719 C43.08074127 76.3257666 46.93789162 83.36598881 50.75 90.4375 C55.41723667 99.09511999 60.13098859 107.71970022 65.0078125 116.26123047 C65.67671686 117.43345902 66.34333659 118.60699381 67.0078125 119.78173828 C67.9583739 121.46159359 68.91651714 123.13715184 69.875 124.8125 C70.40867187 125.74707031 70.94234375 126.68164062 71.4921875 127.64453125 C73.3445359 130.72450893 73.3445359 130.72450893 76 133 C82.60348644 133.70388812 87.91585889 132.06229689 94.125 129.9375 C96.06745927 129.29221854 98.01017563 128.64771052 99.953125 128.00390625 C100.94634766 127.67148926 101.93957031 127.33907227 102.96289062 126.99658203 C105.97956186 126.00670647 109.00778513 125.07087464 112.046875 124.15234375 C113.02382324 123.85400635 114.00077148 123.55566895 115.00732422 123.24829102 C116.86594016 122.68228819 118.72683882 122.12370678 120.59033203 121.57397461 C127.42035204 119.46237404 133.42004392 117.06889336 138.11401367 111.48535156 C141.73566888 107.18786313 144.24687046 104.37837328 149.86865234 103.16503906 C154.31253318 102.8221801 158.73846431 102.9562353 163.1875 103.125 C165.47377108 103.17918736 167.75863615 103.21853184 170.04548645 103.23605347 C171.45728664 103.25011281 172.86911715 103.28628015 174.27958679 103.34915161 C180.88089994 103.47710531 185.53026263 100.71129632 190.2734375 96.23828125 C190.78777344 95.75939453 191.30210937 95.28050781 191.83203125 94.78710938 C192.34121094 94.30048828 192.85039063 93.81386719 193.375 93.3125 C193.90738281 92.81427734 194.43976563 92.31605469 194.98828125 91.80273438 C196.67650248 90.21975849 198.36340362 88.63659638 200 87 C202.07651036 86.96122738 204.154309 86.98856968 206.23046875 87.04296875 C207.50857422 87.06423828 208.78667969 87.08550781 210.10351562 87.10742188 C212.14019423 87.14436343 214.1760108 87.18716335 216.2121582 87.24682617 C218.17616217 87.30170804 220.1408784 87.32885363 222.10546875 87.35546875 C223.28262451 87.38278076 224.45978027 87.41009277 225.67260742 87.43823242 C230.99674433 86.73701988 234.62300226 83.75525644 238.140625 79.8359375 C238.65367187 79.27132812 239.16671875 78.70671875 239.6953125 78.125 C240.20835937 77.5475 240.72140625 76.97 241.25 76.375 C242.29669177 75.21598033 243.34355929 74.05711935 244.390625 72.8984375 C245.25171875 71.94195313 246.1128125 70.98546875 247 70 C249 68 249 68 252.08520508 67.82055664 C253.38353271 67.85012451 254.68186035 67.87969238 256.01953125 67.91015625 C257.44856417 67.93058741 258.87760079 67.95076155 260.30664062 67.97070312 C262.55818214 68.01411047 264.80947902 68.0624275 267.06079102 68.11645508 C269.23452949 68.16493019 271.40794615 68.19467867 273.58203125 68.22265625 C274.88374268 68.25109619 276.1854541 68.27953613 277.52661133 68.30883789 C282.2140443 67.89205271 284.613031 66.40428131 287.87768555 63.09887695 C288.4581665 62.40238037 289.03864746 61.70588379 289.63671875 60.98828125 C290.29736328 60.23095703 290.95800781 59.47363281 291.63867188 58.69335938 C293.00212 57.10895207 294.34868949 55.50985878 295.67773438 53.89648438 C300.59285397 48.34501114 300.59285397 48.34501114 304.25634766 47.44677734 C306.88887239 47.41502127 309.38156483 47.71391694 312 48 C314.44422493 48.18786848 316.88919146 48.36627137 319.3347168 48.53637695 C320.58576706 48.62393753 321.83681732 48.71149811 323.1257782 48.80171204 C324.54851799 48.89986458 324.54851799 48.89986458 326 49 C326.0700771 74.56469462 326.12298185 100.12937484 326.15543652 125.69414616 C326.17090622 137.56427788 326.19199781 149.43434993 326.22631836 161.30444336 C326.25621744 171.65025877 326.27557425 181.99603096 326.28226548 192.34188837 C326.28617686 197.8200776 326.29537145 203.29814319 326.31719017 208.7762928 C326.33756326 213.93329518 326.34383209 219.09012306 326.33932304 224.24716187 C326.34014787 226.13898606 326.34610857 228.03081614 326.35761642 229.92260551 C326.3725734 232.50839606 326.36894198 235.09353037 326.36076355 237.67933655 C326.36950207 238.42546347 326.3782406 239.1715904 326.38724393 239.94032723 C326.33576616 245.97450089 325.12946232 250.76412629 320.89428711 255.2109375 C317.0017522 257.61705271 312.99425832 259.10185052 308.69140625 260.625 C307.75738983 260.96459244 306.82337341 261.30418488 305.86105347 261.65406799 C302.76457625 262.77798146 299.66353844 263.88874064 296.5625 265 C294.38313508 265.78915229 292.20418708 266.57945681 290.02563477 267.37084961 C286.59347648 268.61753729 283.1610867 269.86353978 279.72746277 271.10618591 C267.76157441 275.43787014 255.82696674 279.85283025 243.89596558 284.27954102 C240.54058398 285.52425977 237.18456767 286.76725155 233.82836914 288.00976562 C223.37378142 291.88208103 212.92741025 295.7750097 202.4921875 299.69921875 C193.62076635 303.03327385 184.72745712 306.29741396 175.80480957 309.49157715 C149.95994076 318.74924045 124.25133917 328.37616848 98.5559082 338.03955078 C97.7124585 338.35649902 96.86900879 338.67344727 96 339 C94.18918945 339.6815918 94.18918945 339.6815918 92.34179688 340.37695312 C87.48007877 342.19959757 82.60547039 343.98668971 77.73046875 345.7734375 C75.70205539 346.51762771 73.67365419 347.26185104 71.64526367 348.00610352 C69.49267581 348.79573576 67.34008792 349.58536792 65.1875 350.375 C46.64455069 357.17730283 46.64455069 357.17730283 28.125 364.04296875 C27.30695389 364.34773132 26.48890778 364.6524939 25.64607239 364.9664917 C21.86656558 366.37524387 18.08819165 367.78694395 14.3112793 369.20263672 C12.98227585 369.69893805 11.65325669 370.19519729 10.32421875 370.69140625 C9.19072998 371.11623291 8.05724121 371.54105957 6.8894043 371.97875977 C4 373 4 373 0 374 C0 250.58 0 127.16 0 0 Z " fill="#DBA976" transform="translate(435,449)"/>
<path d="M0 0 C0.66 0 1.32 0 2 0 C2 123.09 2 246.18 2 373 C-9.25511596 369.62346521 -9.25511596 369.62346521 -13.86328125 367.90625 C-14.89791504 367.52210938 -15.93254883 367.13796875 -16.99853516 366.7421875 C-18.09214355 366.33226562 -19.18575195 365.92234375 -20.3125 365.5 C-22.08826416 364.83871094 -22.08826416 364.83871094 -23.89990234 364.1640625 C-30.86257629 361.56578966 -37.81196096 358.93359739 -44.75561523 356.28491211 C-58.8824312 350.89766246 -73.0558925 345.64482695 -87.25 340.4375 C-88.29374786 340.05456787 -89.33749573 339.67163574 -90.41287231 339.27709961 C-100.01699195 335.75437893 -109.62289609 332.23653295 -119.22900391 328.71923828 C-125.34078575 326.48117225 -131.45189944 324.24128922 -137.5625 322 C-138.57591461 321.62838745 -139.58932922 321.2567749 -140.63345337 320.87390137 C-156.58092436 315.0231683 -172.48795293 309.06974654 -188.38256836 303.07714844 C-203.99225495 297.19698966 -219.65842506 291.48509492 -235.35293579 285.83557129 C-254.17136638 279.06028606 -272.96538733 272.23017434 -291.65817261 265.11425781 C-293.69803338 264.33788132 -295.73880854 263.56390253 -297.7805481 262.79248047 C-300.58078941 261.73293128 -303.37690496 260.6632085 -306.171875 259.58984375 C-306.9846843 259.28348495 -307.79749359 258.97712616 -308.63493347 258.66148376 C-315.19138267 256.11809579 -320.86254747 253.65297382 -324 247 C-324.27726421 244.20357726 -324.39288129 241.63626027 -324.36076355 238.84391785 C-324.36332682 238.0270188 -324.3658901 237.21011976 -324.36853105 236.3684662 C-324.37346885 233.63370773 -324.35697617 230.89950245 -324.34057617 228.16479492 C-324.3397299 226.20349134 -324.34020505 224.24218681 -324.34190369 222.28088379 C-324.34276505 216.95688633 -324.32511629 211.6330913 -324.30418181 206.30914092 C-324.28543866 200.74511091 -324.28366643 195.18107636 -324.28010559 189.61701965 C-324.2707782 179.0808911 -324.24615496 168.54485584 -324.21605712 158.00876838 C-324.18253477 146.01373054 -324.16603254 134.01868826 -324.15097082 122.02361524 C-324.11960606 97.34902509 -324.06683201 72.67451777 -324 48 C-323.39449814 47.93302414 -322.78899628 47.86604828 -322.16514587 47.79704285 C-321.36419998 47.70828384 -320.56325409 47.61952484 -319.73803711 47.52807617 C-318.94691025 47.44047531 -318.15578339 47.35287445 -317.34068298 47.26261902 C-315.2901024 47.03254879 -313.24064794 46.79248668 -311.19140625 46.55078125 C-301.62569872 45.92267774 -301.62569872 45.92267774 -297.05859375 48.94921875 C-294.49108614 51.50888664 -292.23117568 54.14409513 -290 57 C-288.71625714 58.50678699 -287.4253965 60.00756182 -286.125 61.5 C-285.61195313 62.1290625 -285.09890625 62.758125 -284.5703125 63.40625 C-281.75376593 66.26483458 -279.75086337 66.9916897 -275.69116211 67.03662109 C-273.75382202 66.90634521 -273.75382202 66.90634521 -271.77734375 66.7734375 C-270.33672496 66.70910817 -268.89595863 66.64801691 -267.45507812 66.58984375 C-265.20236242 66.49165534 -262.95759558 66.37653684 -260.70922852 66.20458984 C-248.60114638 65.31801199 -248.60114638 65.31801199 -244.25323486 68.1295166 C-240.5860492 71.31495771 -237.80657513 75.05890493 -235 79 C-231.76088568 83.50094287 -231.76088568 83.50094287 -227 86 C-224.02661033 86.06531771 -224.02661033 86.06531771 -220.7578125 85.73828125 C-198.12829666 84.37676054 -198.12829666 84.37676054 -191.20654297 90.4987793 C-189.11722989 92.71930961 -187.15920006 94.979385 -185.39257812 97.46606445 C-182.38422799 100.77978533 -179.84738016 101.93596811 -175.37817383 102.27368164 C-173.98752083 102.24769763 -172.597063 102.20917319 -171.20703125 102.16015625 C-169.6738428 102.14830797 -168.1406365 102.13861172 -166.60742188 102.13085938 C-164.21445517 102.10420292 -161.82516811 102.06292249 -159.43334961 101.9831543 C-146.05730601 101.5800027 -146.05730601 101.5800027 -140.93896484 105.11279297 C-138.48373131 107.64600025 -136.25102007 110.28609411 -134 113 C-127.91328468 118.13547176 -120.27965475 120.18941089 -112.8125 122.5625 C-111.09836914 123.12227539 -111.09836914 123.12227539 -109.34960938 123.69335938 C-102.47223828 125.92879656 -95.56757603 128.07228021 -88.65112305 130.18334961 C-86.76015797 130.76584138 -84.87710976 131.37429675 -83 132 C-80.88570205 132.30753109 -80.88570205 132.30753109 -78.625 132.375 C-77.87476563 132.42398438 -77.12453125 132.47296875 -76.3515625 132.5234375 C-72.68698252 131.70773365 -71.3735735 129.88062171 -69 127 C-67.15931827 123.95929133 -65.5805832 120.80705646 -64 117.625 C-60.0898661 109.95507057 -56.02917759 102.40777371 -51.75 94.9375 C-46.85439443 86.36725875 -42.13339552 77.71405226 -37.5 69 C-32.40019507 59.41174738 -27.17047878 49.9101016 -21.79321289 40.47436523 C-17.75888265 33.3810579 -13.82403676 26.23781385 -9.9375 19.0625 C-9.40108887 18.0734668 -8.86467773 17.08443359 -8.31201172 16.06542969 C-5.44494146 10.75455375 -2.66582135 5.41474984 0 0 Z " fill="#DBA976" transform="translate(415,450)"/>
<path d="M0 0 C9.46199722 20.91679449 18.84855505 41.86258142 28.04058838 62.89953613 C34.77376517 78.2999307 41.66737494 93.62463 48.63256836 108.92138672 C51.97677773 116.26969142 55.3157908 123.62062662 58.546875 131.01953125 C59.02479492 132.10983643 59.50271484 133.2001416 59.99511719 134.32348633 C61 137 61 137 61 140 C59.96613159 139.93546631 59.96613159 139.93546631 58.91137695 139.86962891 C44.41800991 138.67624761 44.41800991 138.67624761 31.5859375 144.04296875 C28.7691644 146.92437656 26.39535819 150.07067345 24.11425781 153.38598633 C20.53723889 158.56733429 16.6346293 160.20408562 10.875 162.1875 C9.43466528 162.7011769 7.99455065 163.21547149 6.5546875 163.73046875 C4.79511719 164.35888672 4.79511719 164.35888672 3 165 C2.34 165.33 1.68 165.66 1 166 C-4.23958944 166.35487259 -9.46921989 165.99428905 -14.6875 165.5 C-16.79155206 165.33189275 -18.89572833 165.16533563 -21 165 C-22.2478125 164.87367188 -23.495625 164.74734375 -24.78125 164.6171875 C-32.09122477 164.07590328 -32.09122477 164.07590328 -38.70703125 166.7265625 C-41.02855792 169.02831467 -43.01571497 171.40392729 -45 174 C-46.26293969 175.44444001 -47.53327573 176.88246193 -48.8125 178.3125 C-49.33457031 178.92738281 -49.85664062 179.54226563 -50.39453125 180.17578125 C-50.92433594 180.77777344 -51.45414063 181.37976563 -52 182 C-52.81053833 183.04740356 -52.81053833 183.04740356 -53.63745117 184.1159668 C-56.871439 186.69493591 -59.49226072 186.30160586 -63.40625 185.96875 C-64.88790674 185.89858937 -66.36968536 185.83096547 -67.8515625 185.765625 C-70.16725155 185.64266806 -72.47667609 185.5018914 -74.78808594 185.31445312 C-84.78634522 184.43202273 -84.78634522 184.43202273 -93.59375 188.49609375 C-97.21340944 191.87610455 -100.37340576 195.65110692 -103.19137573 199.72041321 C-105.38930318 202.73087724 -106.51755871 203.9108651 -110.23876953 204.59838867 C-111.44130371 204.5388501 -112.64383789 204.47931152 -113.8828125 204.41796875 C-115.22389796 204.38392532 -116.56505021 204.35243608 -117.90625 204.32324219 C-118.5971875 204.29919312 -119.288125 204.27514404 -120 204.25036621 C-132.78645031 203.43603526 -132.78645031 203.43603526 -143.76123047 208.74731445 C-144.91851747 210.15115786 -145.96481979 211.6444661 -147 213.140625 C-149.5916308 216.84584715 -151.76931537 219.38517766 -156 221 C-161.66702694 221.65359508 -167.30180566 221.61683107 -173 221.5625 C-175.30657045 221.54582425 -177.61186506 221.53691845 -179.91845703 221.55223083 C-181.34652162 221.5614051 -182.77486002 221.55270363 -184.20263672 221.52259827 C-190.22314716 221.55537656 -194.47687254 223.53208321 -198.78515625 227.74609375 C-199.41744141 228.58333984 -199.41744141 228.58333984 -200.0625 229.4375 C-204.71980221 235.53870746 -209.66095609 238.68268534 -216.84765625 240.9296875 C-217.94913246 241.28886765 -217.94913246 241.28886765 -219.07286072 241.65530396 C-220.61452307 242.15422441 -222.15841048 242.64631692 -223.7043457 243.13183594 C-226.06543299 243.87592432 -228.41636917 244.64720913 -230.76757812 245.421875 C-232.27291078 245.9052891 -233.77875436 246.3871157 -235.28515625 246.8671875 C-236.33377586 247.21231888 -236.33377586 247.21231888 -237.40357971 247.56442261 C-241.24277007 248.75031514 -244.21139997 249.58740696 -248 248 C-249.52636719 246.02905273 -249.52636719 246.02905273 -250.796875 243.43359375 C-251.27543945 242.48210449 -251.75400391 241.53061523 -252.24707031 240.55029297 C-252.74303711 239.52307129 -253.23900391 238.49584961 -253.75 237.4375 C-254.82096858 235.30240714 -255.89389089 233.16829317 -256.96875 231.03515625 C-257.74992187 229.46918701 -257.74992187 229.46918701 -258.546875 227.87158203 C-260.34829978 224.31171001 -262.26364673 220.83411014 -264.25 217.375 C-268.4450131 210.01759241 -272.54018792 202.60646642 -276.625 195.1875 C-281.97881217 185.46725646 -287.35251855 175.75857029 -292.75 166.0625 C-297.73735391 157.10222412 -302.67902465 148.11915757 -307.55883789 139.09985352 C-310.17869986 134.27533788 -312.85426372 129.48988064 -315.59765625 124.734375 C-316.19626465 123.69313477 -316.79487305 122.65189453 -317.41162109 121.57910156 C-318.56668131 119.57640436 -319.72937626 117.57808456 -320.90087891 115.58496094 C-321.68277588 114.22806152 -321.68277588 114.22806152 -322.48046875 112.84375 C-322.94348389 112.05162109 -323.40649902 111.25949219 -323.88354492 110.44335938 C-325.16516088 107.63854579 -325.61293899 105.04793305 -326 102 C-325.05020264 101.70359619 -324.10040527 101.40719238 -323.12182617 101.10180664 C-315.82506479 98.82369186 -308.53000583 96.54028283 -301.23828125 94.24609375 C-300.13986404 93.9005394 -300.13986404 93.9005394 -299.01925659 93.54800415 C-296.03122474 92.60787896 -293.04324414 91.66759153 -290.05541992 90.72680664 C-281.65815108 88.08303662 -273.25664408 85.45567763 -264.84008789 82.8737793 C-260.90813999 81.66407917 -256.98425182 80.42979406 -253.0625 79.1875 C-252.26078369 78.93379639 -251.45906738 78.68009277 -250.63305664 78.41870117 C-248.93789018 77.88198293 -247.24282263 77.34495218 -245.54785156 76.80761719 C-243.88068099 76.27915798 -242.2133688 75.75114532 -240.54589844 75.22363281 C-231.18745519 72.26266447 -221.83781661 69.27538806 -212.5 66.25 C-211.75480606 66.00859787 -211.00961212 65.76719574 -210.24183655 65.51847839 C-206.53235259 64.31645049 -202.82334483 63.11297821 -199.11499023 61.9074707 C-191.7385771 59.51251264 -184.35118331 57.16664839 -176.93383789 54.90063477 C-172.61104613 53.57361647 -168.30590974 52.19310376 -164 50.8125 C-155.30654987 48.03443198 -146.5948199 45.31905131 -137.875 42.625 C-126.76612084 39.19110497 -115.68628526 35.67695359 -104.62451172 32.09423828 C-98.35228044 30.06507014 -92.06807046 28.08457441 -85.76464844 26.15454102 C-77.37821866 23.58259378 -69.00208457 20.97719351 -60.625 18.375 C-59.64064972 18.06930084 -58.65629944 17.76360168 -57.64212036 17.44863892 C-43.42914304 13.03183359 -29.23990996 8.54911457 -15.09033203 3.93310547 C-13.35759033 3.36873779 -13.35759033 3.36873779 -11.58984375 2.79296875 C-10.59847412 2.4683667 -9.60710449 2.14376465 -8.58569336 1.80932617 C-2.80512821 0 -2.80512821 0 0 0 Z " fill="#DAA875" transform="translate(766,314)"/>
<path d="M0 0 C6.83510214 0.59124015 12.96351113 2.36180612 19.48046875 4.45703125 C20.5703157 4.80126633 21.66016266 5.1455014 22.78303528 5.50016785 C26.25328435 6.59779667 29.72042281 7.70489779 33.1875 8.8125 C35.49784166 9.54556893 37.8083868 10.27799693 40.11914062 11.00976562 C44.53719609 12.40929386 48.95421245 13.81203245 53.37060547 15.21679688 C57.43434686 16.50722594 61.50296466 17.77822382 65.58203125 19.01953125 C71.56383603 20.84581 77.51554267 22.76273029 83.46875 24.6796875 C84.51883743 25.01753769 85.56892487 25.35538788 86.65083313 25.70347595 C91.02371683 27.11074116 95.39648901 28.51832124 99.76757812 29.93115234 C111.65151036 33.77038421 123.54194651 37.49269509 135.56777954 40.86289978 C143.34698322 43.05923824 151.00063831 45.57094601 158.65002441 48.17941284 C162.54637964 49.50696757 166.44874249 50.81659351 170.3515625 52.125 C171.49449768 52.50826698 171.49449768 52.50826698 172.66052246 52.89927673 C178.49398338 54.84784642 184.35435047 56.68555415 190.25 58.4375 C200.18129221 61.39540869 210.02702843 64.59082546 219.875 67.8125 C237.00981994 73.41392117 254.18403753 78.88594944 271.375 84.3125 C272.55850037 84.68645905 273.74200073 85.06041809 274.96136475 85.44570923 C288.95013381 89.86437233 302.95046716 94.24064973 316.98568726 98.50984192 C318.52151962 98.97906319 318.52151962 98.97906319 320.08837891 99.45776367 C320.99133698 99.73238937 321.89429504 100.00701508 322.82461548 100.28996277 C325 101 325 101 327 102 C325.57289042 105.75952972 323.87676113 109.25987961 321.98046875 112.8046875 C321.37702637 113.93358398 320.77358398 115.06248047 320.15185547 116.22558594 C319.49731113 117.44218689 318.84251989 118.65865502 318.1875 119.875 C317.85397522 120.49636841 317.52045044 121.11773682 317.17681885 121.75793457 C312.1642981 131.09340715 307.02466876 140.34900819 301.77612305 149.55419922 C297.92503 156.3211451 294.18912866 163.14354931 290.5 170 C286.25607481 177.88612834 281.92935517 185.71650514 277.5 193.5 C273.01143168 201.38901938 268.623301 209.32495133 264.3125 217.3125 C263.77431641 218.30515869 263.23613281 219.29781738 262.68164062 220.32055664 C260.13427372 225.02299906 257.61072163 229.73508219 255.13671875 234.4765625 C254.25798703 236.13030108 253.37909075 237.78395224 252.5 239.4375 C252.11497314 240.19522705 251.72994629 240.9529541 251.33325195 241.73364258 C248.67131279 246.68957268 248.67131279 246.68957268 245.609375 248.10546875 C242.2928722 247.97141849 239.8392823 247.09753589 236.75 245.875 C230.53029595 243.5065262 224.29976551 241.56596747 217.86230469 239.87646484 C209.96981132 237.68995465 202.98616634 232.91934333 198 226.375 C195.53010337 223.44199775 193.55759379 222.43770375 190 221 C187.30650814 220.81250314 184.85609332 220.76702646 182.1796875 220.875 C180.65887869 220.89172515 179.13804092 220.90596722 177.6171875 220.91796875 C175.25244083 220.95069036 172.89248563 220.99931208 170.52929688 221.09228516 C155.97615426 221.61465866 155.97615426 221.61465866 149.7817688 216.23950195 C147.4133197 213.9245999 145.21922852 211.45713788 143 209 C140.15064292 206.06347411 137.96691899 204.13094532 133.77124023 203.56274414 C132.62856689 203.63614014 131.48589355 203.70953613 130.30859375 203.78515625 C128.404729 203.85029419 128.404729 203.85029419 126.46240234 203.91674805 C125.80342957 203.94296234 125.14445679 203.96917664 124.46551514 203.9961853 C107.99170254 204.53486762 107.99170254 204.53486762 102.27734375 199.9765625 C99.50219858 197.17102306 97.18871873 194.11377644 95.17138672 190.72338867 C93.58254583 188.38582556 92.26329862 186.73682331 90 185 C87.3493567 184.77081046 85.14296643 184.76394746 82.5234375 184.9609375 C81.03262347 185.02132024 79.5417336 185.0798537 78.05078125 185.13671875 C75.71861298 185.24768127 73.39032779 185.37394235 71.06103516 185.53466797 C58.0888225 186.3777374 58.0888225 186.3777374 52.82080078 182.90307617 C50.29387248 180.39073431 48.13535389 177.84811625 46 175 C44.71599167 173.51418055 43.42580125 172.03364001 42.125 170.5625 C41.61195312 169.94503906 41.09890625 169.32757813 40.5703125 168.69140625 C37.45237242 165.333028 35.98920668 164.08637563 31.2421875 163.671875 C29.78625539 163.68121645 28.33035776 163.70805519 26.875 163.75 C26.11380859 163.76095703 25.35261719 163.77191406 24.56835938 163.78320312 C19.83897757 163.87577826 15.15824212 164.13193571 10.46875 164.78125 C3.12007927 165.43239804 -2.61684645 164.99432295 -9.4375 162.0625 C-10.17468262 161.75111084 -10.91186523 161.43972168 -11.67138672 161.11889648 C-18.2256508 158.18869562 -23.15026894 154.30297695 -28 149 C-28.69996094 148.23558594 -29.39992188 147.47117187 -30.12109375 146.68359375 C-31.78234504 144.81510387 -33.39866691 142.91964089 -35 141 C-36.74506615 139.25493385 -39.19039143 139.76717216 -41.56640625 139.68359375 C-42.69111328 139.64169922 -43.81582031 139.59980469 -44.97460938 139.55664062 C-46.15861328 139.51732422 -47.34261719 139.47800781 -48.5625 139.4375 C-49.75037109 139.39431641 -50.93824219 139.35113281 -52.16210938 139.30664062 C-55.10794784 139.20016454 -58.0538743 139.09815159 -61 139 C-59.08422913 132.94261656 -56.87137462 127.118437 -54.296875 121.3125 C-53.94251373 120.50519943 -53.58815247 119.69789886 -53.22305298 118.86613464 C-52.0696123 116.24219726 -50.91006186 113.62101607 -49.75 111 C-48.93689377 109.15540681 -48.12390703 107.31076093 -47.31103516 105.46606445 C-41.81317987 93.00919013 -36.21939101 80.59786677 -30.55908203 68.21411133 C-25.84759779 57.90127997 -21.22079211 47.5523718 -16.625 37.1875 C-16.28708435 36.42541229 -15.9491687 35.66332458 -15.60101318 34.87814331 C-14.93514849 33.37632825 -14.26928542 31.87451247 -13.60342407 30.37269592 C-13.28312225 29.65029221 -12.96282043 28.92788849 -12.6328125 28.18359375 C-12.31871429 27.47508774 -12.00461609 26.76658173 -11.68099976 26.03660583 C-7.82400548 17.34124247 -3.91983546 8.66719174 0 0 Z " fill="#DAA876" transform="translate(86,315)"/>
<path d="M0 0 C0.66 0 1.32 0 2 0 C2 123.09 2 246.18 2 373 C1.34 372.67 0.68 372.34 0 372 C0 261.12 0 150.24 0 36 C-5.97226187 49.64120012 -5.97226187 49.64120012 -11.42578125 63.46606445 C-17.56519481 79.85653735 -23.9956627 96.12322805 -30.53100586 112.359375 C-34.09385468 121.21325361 -37.60350195 130.08067091 -41 139 C-44.54122107 148.22154118 -48.13290671 157.42035009 -51.875 166.5625 C-52.17325684 167.29500977 -52.47151367 168.02751953 -52.77880859 168.78222656 C-54.87971972 173.87971972 -54.87971972 173.87971972 -56 175 C-64.00587053 175.94186712 -70.6346574 172.87343566 -78 170 C-79.39507668 169.47714332 -80.79075372 168.95588006 -82.1875 168.4375 C-82.76322754 168.22005127 -83.33895508 168.00260254 -83.93212891 167.77856445 C-94.91051526 163.64514366 -106.01925095 159.89823523 -117.125 156.125 C-129.77737821 151.82531244 -142.41186898 147.48463236 -155 143 C-156.20390381 142.57122559 -157.40780762 142.14245117 -158.64819336 141.70068359 C-163.28676046 140.0455563 -167.923596 138.38562162 -172.56005859 136.72460938 C-176.26828541 135.39715075 -179.97732441 134.07200034 -183.6875 132.75 C-184.34532471 132.51555176 -185.00314941 132.28110352 -185.6809082 132.03955078 C-196.52603511 128.179973 -207.41321622 124.47321981 -218.3581543 120.90527344 C-223.70097192 119.15325771 -228.82989445 117.21575952 -234 115 C-237.98052083 113.60710911 -241.98964067 112.30410218 -246 111 C-257.06138141 107.40302267 -257.06138141 107.40302267 -261.45703125 105.515625 C-266.751849 103.2505872 -272.21720318 101.54098959 -277.6875 99.75 C-286.22704935 96.92776334 -294.75808439 94.08788104 -303.25 91.125 C-304.03979248 90.85139648 -304.82958496 90.57779297 -305.64331055 90.29589844 C-309.06595029 89.09565063 -312.42013542 87.84236303 -315.734375 86.3671875 C-319.20532192 84.78752594 -319.20532192 84.78752594 -324 84 C-324 72.12 -324 60.24 -324 48 C-319.545 47.505 -319.545 47.505 -315 47 C-313.74316406 46.85175781 -312.48632812 46.70351563 -311.19140625 46.55078125 C-301.62569872 45.92267774 -301.62569872 45.92267774 -297.05859375 48.94921875 C-294.49108614 51.50888664 -292.23117568 54.14409513 -290 57 C-288.71625714 58.50678699 -287.4253965 60.00756182 -286.125 61.5 C-285.61195313 62.1290625 -285.09890625 62.758125 -284.5703125 63.40625 C-281.75376593 66.26483458 -279.75086337 66.9916897 -275.69116211 67.03662109 C-273.75382202 66.90634521 -273.75382202 66.90634521 -271.77734375 66.7734375 C-270.33672496 66.70910817 -268.89595863 66.64801691 -267.45507812 66.58984375 C-265.20236242 66.49165534 -262.95759558 66.37653684 -260.70922852 66.20458984 C-248.60114638 65.31801199 -248.60114638 65.31801199 -244.25323486 68.1295166 C-240.5860492 71.31495771 -237.80657513 75.05890493 -235 79 C-231.76088568 83.50094287 -231.76088568 83.50094287 -227 86 C-224.02661033 86.06531771 -224.02661033 86.06531771 -220.7578125 85.73828125 C-198.12829666 84.37676054 -198.12829666 84.37676054 -191.20654297 90.4987793 C-189.11722989 92.71930961 -187.15920006 94.979385 -185.39257812 97.46606445 C-182.38422799 100.77978533 -179.84738016 101.93596811 -175.37817383 102.27368164 C-173.98752083 102.24769763 -172.597063 102.20917319 -171.20703125 102.16015625 C-169.6738428 102.14830797 -168.1406365 102.13861172 -166.60742188 102.13085938 C-164.21445517 102.10420292 -161.82516811 102.06292249 -159.43334961 101.9831543 C-146.05730601 101.5800027 -146.05730601 101.5800027 -140.93896484 105.11279297 C-138.48373131 107.64600025 -136.25102007 110.28609411 -134 113 C-127.91328468 118.13547176 -120.27965475 120.18941089 -112.8125 122.5625 C-111.09836914 123.12227539 -111.09836914 123.12227539 -109.34960938 123.69335938 C-102.47223828 125.92879656 -95.56757603 128.07228021 -88.65112305 130.18334961 C-86.76015797 130.76584138 -84.87710976 131.37429675 -83 132 C-80.88570205 132.30753109 -80.88570205 132.30753109 -78.625 132.375 C-77.87476563 132.42398438 -77.12453125 132.47296875 -76.3515625 132.5234375 C-72.68698252 131.70773365 -71.3735735 129.88062171 -69 127 C-67.15931827 123.95929133 -65.5805832 120.80705646 -64 117.625 C-60.0898661 109.95507057 -56.02917759 102.40777371 -51.75 94.9375 C-46.85439443 86.36725875 -42.13339552 77.71405226 -37.5 69 C-32.40019507 59.41174738 -27.17047878 49.9101016 -21.79321289 40.47436523 C-17.75888265 33.3810579 -13.82403676 26.23781385 -9.9375 19.0625 C-9.40108887 18.0734668 -8.86467773 17.08443359 -8.31201172 16.06542969 C-5.44494146 10.75455375 -2.66582135 5.41474984 0 0 Z " fill="#B48255" transform="translate(415,450)"/>
<path d="M0 0 C2.80736218 1.40368109 3.16346559 3.10513493 4.5 5.9375 C7.03554889 11.13690266 9.73170649 16.20573399 12.5625 21.25 C16.54757484 28.35995205 20.44773075 35.51147458 24.3125 42.6875 C29.13799254 51.63522619 34.08766484 60.50353133 39.11547852 69.33886719 C43.08074127 76.3257666 46.93789162 83.36598881 50.75 90.4375 C55.41723667 99.09511999 60.13098859 107.71970022 65.0078125 116.26123047 C65.67671686 117.43345902 66.34333659 118.60699381 67.0078125 119.78173828 C67.9583739 121.46159359 68.91651714 123.13715184 69.875 124.8125 C70.40867187 125.74707031 70.94234375 126.68164062 71.4921875 127.64453125 C73.3445359 130.72450893 73.3445359 130.72450893 76 133 C82.60348644 133.70388812 87.91585889 132.06229689 94.125 129.9375 C96.06745927 129.29221854 98.01017563 128.64771052 99.953125 128.00390625 C100.94634766 127.67148926 101.93957031 127.33907227 102.96289062 126.99658203 C105.97956186 126.00670647 109.00778513 125.07087464 112.046875 124.15234375 C113.02382324 123.85400635 114.00077148 123.55566895 115.00732422 123.24829102 C116.86594016 122.68228819 118.72683882 122.12370678 120.59033203 121.57397461 C127.42035204 119.46237404 133.42004392 117.06889336 138.11401367 111.48535156 C141.73566888 107.18786313 144.24687046 104.37837328 149.86865234 103.16503906 C154.31253318 102.8221801 158.73846431 102.9562353 163.1875 103.125 C165.47377108 103.17918736 167.75863615 103.21853184 170.04548645 103.23605347 C171.45728664 103.25011281 172.86911715 103.28628015 174.27958679 103.34915161 C180.88089994 103.47710531 185.53026263 100.71129632 190.2734375 96.23828125 C190.78777344 95.75939453 191.30210937 95.28050781 191.83203125 94.78710938 C192.34121094 94.30048828 192.85039063 93.81386719 193.375 93.3125 C193.90738281 92.81427734 194.43976563 92.31605469 194.98828125 91.80273438 C196.67650248 90.21975849 198.36340362 88.63659638 200 87 C202.07651036 86.96122738 204.154309 86.98856968 206.23046875 87.04296875 C207.50857422 87.06423828 208.78667969 87.08550781 210.10351562 87.10742188 C212.14019423 87.14436343 214.1760108 87.18716335 216.2121582 87.24682617 C218.17616217 87.30170804 220.1408784 87.32885363 222.10546875 87.35546875 C223.28262451 87.38278076 224.45978027 87.41009277 225.67260742 87.43823242 C230.99674433 86.73701988 234.62300226 83.75525644 238.140625 79.8359375 C238.65367187 79.27132812 239.16671875 78.70671875 239.6953125 78.125 C240.20835937 77.5475 240.72140625 76.97 241.25 76.375 C242.29669177 75.21598033 243.34355929 74.05711935 244.390625 72.8984375 C245.25171875 71.94195313 246.1128125 70.98546875 247 70 C249 68 249 68 252.08520508 67.82055664 C253.38353271 67.85012451 254.68186035 67.87969238 256.01953125 67.91015625 C257.44856417 67.93058741 258.87760079 67.95076155 260.30664062 67.97070312 C262.55818214 68.01411047 264.80947902 68.0624275 267.06079102 68.11645508 C269.23452949 68.16493019 271.40794615 68.19467867 273.58203125 68.22265625 C274.88374268 68.25109619 276.1854541 68.27953613 277.52661133 68.30883789 C282.2140443 67.89205271 284.613031 66.40428131 287.87768555 63.09887695 C288.4581665 62.40238037 289.03864746 61.70588379 289.63671875 60.98828125 C290.29736328 60.23095703 290.95800781 59.47363281 291.63867188 58.69335938 C293.00212 57.10895207 294.34868949 55.50985878 295.67773438 53.89648438 C300.59285397 48.34501114 300.59285397 48.34501114 304.25634766 47.44677734 C306.64453125 47.41796875 306.64453125 47.41796875 312 48 C318.93 48.495 318.93 48.495 326 49 C326 60.55 326 72.1 326 84 C307.39052288 90.97855392 307.39052288 90.97855392 301.4375 93.0625 C300.74479004 93.30653564 300.05208008 93.55057129 299.33837891 93.80200195 C293.37498127 95.89264954 287.37854336 97.87621813 281.3671875 99.82421875 C277.97338037 100.96344187 277.97338037 100.96344187 274.6640625 102.4453125 C270.34355894 104.27853256 265.9602424 105.73656255 261.5 107.1875 C253.53900507 109.80914167 245.60335384 112.49495987 237.6875 115.25 C236.74003906 115.57895264 235.79257812 115.90790527 234.81640625 116.24682617 C230.82567318 117.63853748 226.84548632 119.04564855 222.89453125 120.546875 C217.88725549 122.44292619 212.7980076 124.08324666 207.7109375 125.75 C206.96070313 125.9975 206.21046875 126.245 205.4375 126.5 C204.77621094 126.7165625 204.11492187 126.933125 203.43359375 127.15625 C200.66341768 128.11669628 197.92539519 129.15600562 195.18209839 130.19021606 C191.46594905 131.56929138 187.71894829 132.85789644 183.97265625 134.15234375 C182.21008078 134.76387372 180.44755007 135.37553268 178.68505859 135.98730469 C177.76843445 136.30517944 176.8518103 136.6230542 175.90740967 136.95056152 C161.52189177 141.94109647 147.165137 146.9924283 132.875 152.25 C120.49924976 156.80037176 108.04652493 161.07152955 95.51782227 165.18164062 C89.54941286 167.14109575 83.59517987 169.11711103 77.6953125 171.27734375 C76.77016846 171.61467529 75.84502441 171.95200684 74.8918457 172.29956055 C73.24259134 172.90727917 71.59738825 173.52618365 69.95776367 174.15942383 C66.89235962 175.28739537 64.04695384 175.99565348 60.79296875 176.296875 C54.06472331 173.17271068 51.50826054 161.55664637 48.9609375 154.91015625 C48.59828796 153.97643188 48.23563843 153.04270752 47.86199951 152.08068848 C47.09236292 150.09812303 46.3247838 148.11475777 45.55914307 146.13064575 C43.55479116 140.93731737 41.53496813 135.75001382 39.515625 130.5625 C38.92281235 129.03829185 38.92281235 129.03829185 38.31802368 127.48329163 C34.92222931 118.7665467 31.40932951 110.10294561 27.84350586 101.4543457 C25.5042167 95.75753092 23.22650635 90.04205196 21.01953125 84.29296875 C20.63423248 83.29028709 20.63423248 83.29028709 20.2411499 82.26734924 C19.01415067 79.06995312 17.79413626 75.87027494 16.58447266 72.66625977 C12.09624377 60.90806015 7.03986929 49.59169938 2 38 C1.67 148.55 1.34 259.1 1 373 C1.66 373.33 2.32 373.66 3 374 C2.01 374 1.02 374 0 374 C0 250.58 0 127.16 0 0 Z " fill="#B38155" transform="translate(435,449)"/>
<path d="M0 0 C21.5609965 7.39790399 40.89041405 18.86660754 57.37890625 34.5546875 C59.94307534 37.01112306 59.94307534 37.01112306 62.63671875 39.09765625 C66.24369121 42.00112004 69.02606153 45.46844807 72 49 C72.680625 49.76957031 73.36125 50.53914063 74.0625 51.33203125 C93.718857 74.18254626 105.25760462 102.9653761 112.1875 131.9375 C112.35459473 132.63536621 112.52168945 133.33323242 112.69384766 134.05224609 C114.2637048 140.79891332 115.12546777 147.25333715 115.12025452 154.18174744 C115.12153615 155.21364876 115.12153615 155.21364876 115.12284368 156.26639658 C115.12447998 158.55254354 115.11900767 160.83861576 115.11352539 163.12475586 C115.11324309 164.77108763 115.11340209 166.41741952 115.1139679 168.06375122 C115.11425421 172.51981725 115.10838431 176.97585624 115.10139394 181.431916 C115.09513275 186.09373381 115.09455441 190.75555229 115.09336853 195.41737366 C115.09026337 204.23926396 115.08206096 213.06114183 115.07201904 221.88302666 C115.0608326 231.92894537 115.05534108 241.97486468 115.05032361 252.02078807 C115.03987767 272.68053231 115.022294 293.34026537 115 314 C108.83045919 317.14775772 102.64045635 319.07876579 96 321 C94.94941406 321.30421875 93.89882813 321.6084375 92.81640625 321.921875 C85.43514151 324 85.43514151 324 82 324 C81.99780016 322.72533072 81.99780016 322.72533072 81.99555588 321.42491055 C81.95833127 300.64553932 81.89911155 279.86632916 81.81609726 259.08708858 C81.77646817 249.03795581 81.74399443 238.98889951 81.72900391 228.93969727 C81.71590305 220.16991147 81.68872659 211.4002951 81.64538693 202.6306048 C81.62295964 197.99698782 81.60707788 193.36357833 81.60811615 188.72990227 C81.60789526 170.22707908 81.57266015 152.27496398 77.46547699 134.12436104 C76.77106263 130.9551672 76.27008315 127.76457057 75.75 124.5625 C67.78210236 86.17172045 47.46866609 53.37648936 20 26 C19.484375 25.44957031 18.96875 24.89914063 18.4375 24.33203125 C9.93640843 15.34582304 -0.51215443 8.4315708 -11 2 C-11.99 1.34 -12.98 0.68 -14 0 C-14 -0.66 -14 -1.32 -14 -2 C-9.83820808 -4.08089596 -4.23085828 -1.27582423 0 0 Z " fill="#DDE4E6" transform="translate(479,34)"/>
<path d="M0 0 C5.39033384 3.55272003 9.29333407 8.74222492 11 15 C12.03584546 22.72050148 10.40430813 28.59272763 6 35 C3.86491321 37.35852611 1.62532635 39.21241824 -1 41 C-2.36125 41.928125 -2.36125 41.928125 -3.75 42.875 C-10.47023384 45.20123479 -16.81582476 44.90047643 -23.3125 42 C-29.78138573 38.37989225 -33.67057232 32.97774264 -36 26 C-36.86515318 18.38215771 -36.09635202 12.19884099 -31.453125 5.90234375 C-23.02229226 -4.37506518 -11.86879532 -5.83028542 0 0 Z " fill="#412D20" transform="translate(368,179)"/>
<path d="M0 0 C6.21426351 3.66822545 11.20213553 9.25156897 13.44921875 16.125 C14.38934826 23.21060768 13.89942489 29.07790061 10.0078125 35.15234375 C5.48194054 40.88057768 0.59103089 44.60477239 -6.78515625 45.53125 C-13.85008905 45.71964821 -18.97322797 45.49748121 -24.64453125 41.04296875 C-30.12026001 35.53357772 -33.55110645 29.81052854 -33.92578125 22 C-33.829907 15.53381424 -31.16724152 9.95755185 -26.80078125 5.23046875 C-19.26112177 -1.44797963 -9.72101692 -3.33462142 0 0 Z " fill="#412D20" transform="translate(506.55078125,176.875)"/>
<path d="M0 0 C2.33171205 1.57798283 4.46414686 3.31357403 6.62890625 5.11328125 C16.10707198 12.65521543 25.07377081 13.87296403 37 13 C45.10450393 11.42382841 50.38487471 7.44996576 56.296875 1.828125 C59.76514708 -0.51746941 61.89059654 -0.43533843 66 0 C68.9375 1.4375 68.9375 1.4375 71 4 C72.12362581 8.05620947 71.88339731 11.43015953 69.80859375 15.1171875 C62.41651897 24.2726729 51.46697993 29.97853869 40 32 C23.68415863 33.50881499 9.52724517 31.36698353 -3.55078125 20.97265625 C-10.47372144 15.04343953 -10.47372144 15.04343953 -12 11 C-11.92484951 6.79157236 -11.65198603 4.72649872 -8.8125 1.5625 C-5.28824013 -0.39542215 -3.97575138 -0.84102433 0 0 Z " fill="#402C1F" transform="translate(396,246)"/>
<path d="M0 0 C1 3 1 3 -0.05712891 5.54589844 C-0.60804199 6.5568457 -1.15895508 7.56779297 -1.7265625 8.609375 C-2.64634888 10.31262939 -2.64634888 10.31262939 -3.5847168 12.05029297 C-4.26448284 13.28370967 -4.94458553 14.51694088 -5.625 15.75 C-6.31684036 17.02062703 -7.00799567 18.29162729 -7.69848633 19.56298828 C-12.46190592 28.30799338 -17.33555324 36.99132438 -22.26489258 45.64379883 C-27.98395248 55.68570369 -33.50060952 65.8365505 -39 76 C-39.66 76 -40.32 76 -41 76 C-39.125 70.25 -39.125 70.25 -38 68 C-37.34 68 -36.68 68 -36 68 C-35.90203125 67.47921875 -35.8040625 66.9584375 -35.703125 66.421875 C-34.76048733 63.1750119 -33.27413518 60.2533603 -31.75 57.25 C-31.43281006 56.6194873 -31.11562012 55.98897461 -30.78881836 55.33935547 C-29.1762252 52.17294248 -27.51348677 49.09476144 -25.5625 46.125 C-21.41026451 39.79911103 -18.31883343 32.78590259 -15 26 C-14.34 26 -13.68 26 -13 26 C-12.87544434 25.42113037 -12.75088867 24.84226074 -12.62255859 24.24584961 C-11.99178599 21.97036838 -11.1509175 20.14510273 -10.0390625 18.06640625 C-9.45511719 16.9690918 -9.45511719 16.9690918 -8.859375 15.84960938 C-8.45203125 15.09486328 -8.0446875 14.34011719 -7.625 13.5625 C-7.22539062 12.81162109 -6.82578125 12.06074219 -6.4140625 11.28710938 C-4.36949082 7.46362583 -2.27575052 3.69258875 0 0 Z " fill="#442611" transform="translate(411,455)"/>
<path d="M0 0 C-3.77132883 2.51421922 -5.43055884 2.09565175 -9.90625 1.80859375 C-11.30456997 1.74912228 -12.70301699 1.69257973 -14.1015625 1.63867188 C-16.29226131 1.54670156 -18.47617996 1.43923408 -20.66308594 1.2800293 C-30.14650271 0.52861705 -30.14650271 0.52861705 -38.484375 4.48876953 C-41.2704899 7.1163029 -43.67485214 9.9614545 -46 13 C-46.33 12.01 -46.66 11.02 -47 10 C-36.2855437 -6.88006415 -17.41245302 -1.70320419 0 0 Z " fill="#3D210C" transform="translate(712,500)"/>
<path d="M0 0 C0.66 0 1.32 0 2 0 C2 17.82 2 35.64 2 54 C1.67 54 1.34 54 1 54 C0.34 39.15 -0.32 24.3 -1 9 C-1.99 9.495 -1.99 9.495 -3 10 C-2.39009109 6.44219804 -1.4216319 3.3171411 0 0 Z " fill="#A67E5E" transform="translate(415,450)"/>
<path d="M0 0 C5.26643245 -0.0550818 10.52936932 -0.05732677 15.79589844 -0.01220703 C17.58430237 -0.0041337 19.37283014 -0.0100896 21.16113281 -0.03076172 C36.06752861 -0.18863325 36.06752861 -0.18863325 41.00390625 2.84765625 C42.95917315 4.80292315 44.54450511 6.65518437 46 9 C45.67 9.66 45.34 10.32 45 11 C44.236875 10.195625 43.47375 9.39125 42.6875 8.5625 C40.20569102 5.83200976 40.20569102 5.83200976 37 5 C37 4.34 37 3.68 37 3 C36.05680908 3.01047363 35.11361816 3.02094727 34.1418457 3.03173828 C30.62879982 3.06590641 27.1159316 3.0909408 23.6027832 3.10986328 C22.08485114 3.11989545 20.56693827 3.13352438 19.04907227 3.15087891 C16.8620936 3.17525035 14.67537136 3.18651095 12.48828125 3.1953125 C11.17384033 3.20578613 9.85939941 3.21625977 8.50512695 3.22705078 C5.18617411 3.01205976 2.96685993 2.44225823 0 1 C0 0.67 0 0.34 0 0 Z " fill="#B08661" transform="translate(233,552)"/>
<path d="M0 0 C3.03869411 1.51934706 3.64410306 3.98004772 5 7 C5 7.66 5 8.32 5 9 C4.01 9 3.02 9 2 9 C2.33 18.57 2.66 28.14 3 38 C2.67 37.34 2.34 36.68 2 36 C1.34 36 0.68 36 0 36 C0 24.12 0 12.24 0 0 Z " fill="#A37B5B" transform="translate(435,449)"/>
<path d="M0 0 C11.89887477 -0.8605584 11.89887477 -0.8605584 16.33300781 1.40625 C18.38440396 3.19708575 20.10482227 5.10941264 21.89550781 7.16015625 C23.71229919 8.82423183 25.54617006 10.46982692 27.39550781 12.09765625 C28.89600727 13.45126947 30.3961872 14.80523741 31.89550781 16.16015625 C30.57550781 16.49015625 29.25550781 16.82015625 27.89550781 17.16015625 C27.47140625 16.65226563 27.04730469 16.144375 26.61035156 15.62109375 C23.69112241 12.19500943 20.72813893 8.81948549 17.45800781 5.72265625 C16.96429688 5.24957031 16.47058594 4.77648437 15.96191406 4.2890625 C9.81511009 0.93097867 1.19089446 2.03969035 -5.60449219 2.09765625 C-7.12429687 2.10442383 -7.12429687 2.10442383 -8.67480469 2.11132812 C-11.15143045 2.12301032 -13.62792875 2.13939043 -16.10449219 2.16015625 C-16.10449219 1.83015625 -16.10449219 1.50015625 -16.10449219 1.16015625 C-12.13950942 0.81322026 -8.17445185 0.52356356 -4.20117188 0.2890625 C-2.80011578 0.20292398 -1.39965433 0.10651662 0 0 Z " fill="#3F220D" transform="translate(209.1044921875,517.83984375)"/>
<path d="M0 0 C0 0.33 0 0.66 0 1 C-1.17018677 0.95117676 -1.17018677 0.95117676 -2.36401367 0.90136719 C-19.56427143 -0.33397999 -19.56427143 -0.33397999 -34.6184082 6.36230469 C-36.9560458 8.7982329 -39.0294735 11.25533809 -41 14 C-41.66 13.34 -42.32 12.68 -43 12 C-33.43000896 -4.36395415 -16.61269983 -1.19142202 0 0 Z " fill="#B78A63" transform="translate(611,554)"/>
<path d="M0 0 C1.46368311 0.53024183 2.92447482 1.06850988 4.3828125 1.61328125 C5.92273897 2.17697955 7.46310709 2.73947274 9.00390625 3.30078125 C10.14641846 3.7184375 10.14641846 3.7184375 11.31201172 4.14453125 C15.26078046 5.54947454 19.2726804 6.76003994 23.28515625 7.96875 C25.5078125 8.92578125 25.5078125 8.92578125 27.5078125 11.92578125 C16.23282963 9.47469802 5.40847181 5.65890474 -5.4921875 1.92578125 C-5.4921875 1.26578125 -5.4921875 0.60578125 -5.4921875 -0.07421875 C-3.4921875 -1.07421875 -3.4921875 -1.07421875 0 0 Z " fill="#51331A" transform="translate(337.4921875,390.07421875)"/>
<path d="M0 0 C0.67740234 -0.01224609 1.35480469 -0.02449219 2.05273438 -0.03710938 C6.08770413 -0.04894213 7.97011737 0.32880869 11.6875 2.1875 C1.7875 2.6825 1.7875 2.6825 -8.3125 3.1875 C-8.9725 4.5075 -9.6325 5.8275 -10.3125 7.1875 C-11.97242385 8.98348318 -13.6858972 10.7308101 -15.4375 12.4375 C-16.34757813 13.32953125 -17.25765625 14.2215625 -18.1953125 15.140625 C-18.89398437 15.81609375 -19.59265625 16.4915625 -20.3125 17.1875 C-20.9725 16.8575 -21.6325 16.5275 -22.3125 16.1875 C-20.00028773 13.70806484 -17.68768185 11.22899716 -15.375 8.75 C-14.71564453 8.04294922 -14.05628906 7.33589844 -13.37695312 6.60742188 C-12.74853516 5.93388672 -12.12011719 5.26035156 -11.47265625 4.56640625 C-10.89136963 3.9432251 -10.31008301 3.32004395 -9.71118164 2.67797852 C-6.75494067 -0.47228351 -4.18273471 0.00391275 0 0 Z " fill="#462812" transform="translate(737.3125,477.8125)"/>
<path d="M0 0 C11.22 0 22.44 0 34 0 C34 0.66 34 1.32 34 2 C33.07719238 2.03758423 33.07719238 2.03758423 32.13574219 2.07592773 C29.34029844 2.19218487 26.54516702 2.31477642 23.75 2.4375 C22.78191406 2.47681641 21.81382812 2.51613281 20.81640625 2.55664062 C19.41455078 2.61948242 19.41455078 2.61948242 17.984375 2.68359375 C17.12553711 2.72025146 16.26669922 2.75690918 15.38183594 2.79467773 C13.01855861 2.92618308 13.01855861 2.92618308 10.87597656 3.58227539 C9 4 9 4 6 3 C4.00326516 2.64763503 2.00349261 2.31165441 0 2 C0 1.34 0 0.68 0 0 Z " fill="#3A1F0A" transform="translate(140,499)"/>
<path d="M0 0 C0 0.66 0 1.32 0 2 C-3.71439087 3.27132756 -7.43147159 4.53442768 -11.15112305 5.7902832 C-13.03122684 6.4269105 -14.90918995 7.06984847 -16.78710938 7.71289062 C-17.98271484 8.11572266 -19.17832031 8.51855469 -20.41015625 8.93359375 C-21.50465088 9.30540771 -22.59914551 9.67722168 -23.72680664 10.06030273 C-27.14566855 11.04181981 -30.4720916 11.57633862 -34 12 C-34 11.34 -34 10.68 -34 10 C-32.97229492 9.7054895 -32.97229492 9.7054895 -31.92382812 9.4050293 C-28.78158655 8.50251005 -25.64079402 7.59504339 -22.5 6.6875 C-21.42234375 6.37876953 -20.3446875 6.07003906 -19.234375 5.75195312 C-14.54411927 4.39349491 -9.90339765 3.02268691 -5.34375 1.26953125 C-2 0 -2 0 0 0 Z " fill="#432711" transform="translate(762,313)"/>
<path d="M0 0 C4.62859406 3.77844413 8.5565619 7.6257421 12.32421875 12.265625 C15.63000833 15.68700163 18.76670904 16.2588903 23.421875 16.4140625 C24.95908203 16.47207031 24.95908203 16.47207031 26.52734375 16.53125 C27.59082031 16.5621875 28.65429688 16.593125 29.75 16.625 C31.36841797 16.68300781 31.36841797 16.68300781 33.01953125 16.7421875 C35.67951775 16.83634631 38.3394994 16.92197387 41 17 C41 17.33 41 17.66 41 18 C37.50258043 18.31626562 34.00321805 18.56959239 30.5 18.8125 C29.51773438 18.90208984 28.53546875 18.99167969 27.5234375 19.08398438 C20.62811718 19.520688 16.28682475 18.57351637 11 14 C9.62131719 12.37064759 8.28725907 10.70250393 7 9 C5.16755153 7.42305633 3.2992882 5.91331225 1.390625 4.4296875 C0 3 0 3 0 0 Z " fill="#B48964" transform="translate(170,520)"/>
<path d="M0 0 C1.05904289 0.00212242 1.05904289 0.00212242 2.13948059 0.00428772 C4.39120751 0.00987861 6.64283446 0.02242937 8.89453125 0.03515625 C10.4225246 0.04017243 11.95051952 0.04473513 13.47851562 0.04882812 C17.2213926 0.05984505 20.96419498 0.07710338 24.70703125 0.09765625 C24.70703125 0.42765625 24.70703125 0.75765625 24.70703125 1.09765625 C14.47703125 1.09765625 4.24703125 1.09765625 -6.29296875 1.09765625 C-6.29296875 1.75765625 -6.29296875 2.41765625 -6.29296875 3.09765625 C-7.74560913 3.96146915 -9.20528505 4.81346079 -10.66796875 5.66015625 C-11.88613281 6.37365234 -11.88613281 6.37365234 -13.12890625 7.1015625 C-13.84304688 7.43027344 -14.5571875 7.75898437 -15.29296875 8.09765625 C-15.95296875 7.76765625 -16.61296875 7.43765625 -17.29296875 7.09765625 C-16.19378059 6.11290411 -15.08840855 5.13505152 -13.98046875 4.16015625 C-13.36558594 3.61488281 -12.75070312 3.06960938 -12.1171875 2.5078125 C-8.38187449 -0.37965644 -4.48763786 -0.03383894 0 0 Z " fill="#58371B" transform="translate(583.29296875,534.90234375)"/>
<path d="M0 0 C0.74056641 0.02255859 1.48113281 0.04511719 2.24414062 0.06835938 C4.05947357 0.1269185 5.87375681 0.21659114 7.6875 0.3125 C7.6875 0.6425 7.6875 0.9725 7.6875 1.3125 C6.54410156 1.43367187 5.40070312 1.55484375 4.22265625 1.6796875 C2.73171583 1.84847321 1.24083327 2.01777047 -0.25 2.1875 C-1.38211914 2.30544922 -1.38211914 2.30544922 -2.53710938 2.42578125 C-4.47169299 2.65133808 -6.39426019 2.97508974 -8.3125 3.3125 C-8.6425 3.9725 -8.9725 4.6325 -9.3125 5.3125 C-9.9725 5.3125 -10.6325 5.3125 -11.3125 5.3125 C-11.51875 5.84875 -11.725 6.385 -11.9375 6.9375 C-13.84500426 10.23228009 -16.36069384 12.90613628 -19.3125 15.3125 C-19.9725 15.3125 -20.6325 15.3125 -21.3125 15.3125 C-21.3125 12.3125 -21.3125 12.3125 -19.73828125 10.6640625 C-19.04089844 10.09429688 -18.34351563 9.52453125 -17.625 8.9375 C-15.16883574 6.9115114 -13.10819951 5.06670097 -11.0625 2.60546875 C-7.3152768 -0.5189915 -4.70809916 -0.27348208 0 0 Z " fill="#42250F" transform="translate(636.3125,517.6875)"/>
<path d="M0 0 C0.90492188 0.02320313 1.80984375 0.04640625 2.7421875 0.0703125 C3.65226563 0.08835937 4.56234375 0.10640625 5.5 0.125 C6.19867187 0.14820313 6.89734375 0.17140625 7.6171875 0.1953125 C7.6171875 0.5253125 7.6171875 0.8553125 7.6171875 1.1953125 C6.72966797 1.19917969 6.72966797 1.19917969 5.82421875 1.203125 C1.0333592 1.34485856 1.0333592 1.34485856 -3.0234375 3.59765625 C-4.19190137 5.09343078 -5.29212683 6.6419117 -6.3828125 8.1953125 C-7.0428125 8.1953125 -7.7028125 8.1953125 -8.3828125 8.1953125 C-8.47433594 8.78828125 -8.56585937 9.38125 -8.66015625 9.9921875 C-9.55513363 12.72065907 -10.72187551 13.66656291 -12.9453125 15.4453125 C-13.58597656 15.96609375 -14.22664062 16.486875 -14.88671875 17.0234375 C-15.38042969 17.41015625 -15.87414062 17.796875 -16.3828125 18.1953125 C-15.94269759 13.75122539 -12.88238383 11.13800327 -9.9453125 8.0703125 C-9.44193359 7.53277344 -8.93855469 6.99523437 -8.41992188 6.44140625 C-2.56984088 0.2106427 -2.56984088 0.2106427 0 0 Z " fill="#B28660" transform="translate(686.3828125,516.8046875)"/>
<path d="M0 0 C0.66 0.99 1.32 1.98 2 3 C1.34 4.98 0.68 6.96 0 9 C6.27 9.66 12.54 10.32 19 11 C19 11.33 19 11.66 19 12 C11.41 12 3.82 12 -4 12 C-2.66666667 8 -1.33333333 4 0 0 Z " fill="#BE966E" transform="translate(29,442)"/>
<path d="M0 0 C0.99 0.33 1.98 0.66 3 1 C-1.11619836 5.91935902 -5.40410362 10.52647956 -10 15 C-10.66 14.34 -11.32 13.68 -12 13 C-10.18777319 11.02058257 -8.37523172 9.04145495 -6.5625 7.0625 C-6.04623047 6.49853516 -5.52996094 5.93457031 -4.99804688 5.35351562 C-1.11328125 1.11328125 -1.11328125 1.11328125 0 0 Z " fill="#64564E" transform="translate(301,55)"/>
<path d="M0 0 C0.66 0 1.32 0 2 0 C1.31412247 4.77295598 -0.50631925 8.87632791 -2.4375 13.25 C-2.75009766 13.9821875 -3.06269531 14.714375 -3.38476562 15.46875 C-5.75320465 20.87660233 -5.75320465 20.87660233 -8 22 C-7.40644629 16.69981613 -5.62627368 12.41863107 -3.4375 7.625 C-3.10814453 6.88894531 -2.77878906 6.15289062 -2.43945312 5.39453125 C-1.63252195 3.59355443 -0.8171174 1.79637819 0 0 Z " fill="#3C220E" transform="translate(71,343)"/>
<path d="M0 0 C4.41080354 -0.02490464 8.82156871 -0.04295604 13.23242188 -0.05493164 C14.72982497 -0.05992943 16.22722327 -0.0667299 17.72460938 -0.07543945 C19.88933505 -0.08770623 22.05399565 -0.09327397 24.21875 -0.09765625 C26.1668457 -0.10551147 26.1668457 -0.10551147 28.15429688 -0.11352539 C32.18086673 0.0053392 36.01415096 0.43973231 40 1 C40 1.33 40 1.66 40 2 C33.565 2.495 33.565 2.495 27 3 C27 2.67 27 2.34 27 2 C18.09 1.67 9.18 1.34 0 1 C0 0.67 0 0.34 0 0 Z " fill="#7F746B" transform="translate(410,6)"/>
<path d="M0 0 C0.66 0.33 1.32 0.66 2 1 C-2.67847838 4.66456665 -5.51243081 5.50974601 -11.625 5.375 C-13.56246094 5.35566406 -13.56246094 5.35566406 -15.5390625 5.3359375 C-18.6459161 5.03436932 -20.40524299 4.64641942 -23 3 C-17.73812945 1.71198994 -12.65788364 2.01659862 -7.27734375 2.16015625 C-4.11450853 2.00559577 -2.69319954 1.48654663 0 0 Z " fill="#553319" transform="translate(668,532)"/>
<path d="M0 0 C0.66 0.33 1.32 0.66 2 1 C-1.3 7.27 -4.6 13.54 -8 20 C-9.21567959 15.13728163 -7.91493457 13.05413256 -5.6875 8.875 C-5.36587891 8.24207031 -5.04425781 7.60914063 -4.71289062 6.95703125 C-3.34242327 4.30614778 -2.12173064 2.12173064 0 0 Z " fill="#4C2B14" transform="translate(355,557)"/>
<path d="M0 0 C0.66 0.33 1.32 0.66 2 1 C-0.07027847 3.67132706 -1.68975323 5.75192019 -5.125 6.40234375 C-9.76203007 6.47283914 -13.67533316 5.7742223 -18 4 C-16.125 2.9375 -16.125 2.9375 -14 2 C-13.34 2.33 -12.68 2.66 -12 3 C-9.89145964 3.2352732 -9.89145964 3.2352732 -7.5625 3.25 C-6.38880859 3.28867187 -6.38880859 3.28867187 -5.19140625 3.328125 C-2.52068491 2.92823089 -1.68022561 2.05300878 0 0 Z " fill="#4C2B14" transform="translate(344,577)"/>
<path d="M0 0 C0 0.33 0 0.66 0 1 C-0.98742187 1.06058594 -1.97484375 1.12117188 -2.9921875 1.18359375 C-4.27351563 1.26738281 -5.55484375 1.35117187 -6.875 1.4375 C-8.15117188 1.51871094 -9.42734375 1.59992188 -10.7421875 1.68359375 C-13.88300152 1.79206027 -13.88300152 1.79206027 -16 3 C-17.87379605 3.07033769 -19.75001102 3.0843022 -21.625 3.0625 C-22.62789063 3.05347656 -23.63078125 3.04445313 -24.6640625 3.03515625 C-25.43492188 3.02355469 -26.20578125 3.01195312 -27 3 C-27 2.34 -27 1.68 -27 1 C-17.98185679 -0.14516104 -9.0719352 -0.09471858 0 0 Z " fill="#634024" transform="translate(121,478)"/>
<path d="M0 0 C7.60154046 0.32978484 13.97319219 2.12782571 21 5 C21 5.66 21 6.32 21 7 C13.78069368 5.55613874 6.94889267 3.42211826 0 1 C0 0.67 0 0.34 0 0 Z " fill="#503018" transform="translate(241,362)"/>
<path d="M0 0 C0.66 0 1.32 0 2 0 C0.34229667 4.49324849 -1.84982162 8.61186146 -4.125 12.8125 C-4.49753906 13.50537109 -4.87007813 14.19824219 -5.25390625 14.91210938 C-6.16690377 16.60934836 -7.08312716 18.30485138 -8 20 C-8.33 20 -8.66 20 -9 20 C-9.44794966 15.42925443 -8.17545898 13.17990818 -5.625 9.4375 C-3.5454332 6.35238136 -1.5728633 3.37609546 0 0 Z " fill="#CCA37B" transform="translate(384,466)"/>
<path d="M0 0 C4.69239886 1.2200237 8.69663886 2.70487406 13 5 C13.78375 5.391875 14.5675 5.78375 15.375 6.1875 C16.179375 6.5896875 16.179375 6.5896875 17 7 C12.76507271 8.24690857 10.68865425 7.79069846 6.8125 5.75 C5.95269531 5.31171875 5.09289062 4.8734375 4.20703125 4.421875 C2 3 2 3 0 0 Z " fill="#422612" transform="translate(282,563)"/>
<path d="M0 0 C6.48472993 0.73690113 12.69239743 2.35318751 19 4 C18.34 4.66 17.68 5.32 17 6 C11.13173302 5.57388103 5.4103101 3.16412404 0 1 C0 0.67 0 0.34 0 0 Z " fill="#4F3119" transform="translate(150,333)"/>
<path d="M0 0 C-2.46091594 2.46091594 -4.518796 3.02845243 -7.8125 4.125 C-8.85019531 4.47820313 -9.88789062 4.83140625 -10.95703125 5.1953125 C-13.80485601 5.94839581 -16.07575626 6.16215769 -19 6 C-16.53908406 3.53908406 -14.481204 2.97154757 -11.1875 1.875 C-10.14980469 1.52179687 -9.11210938 1.16859375 -8.04296875 0.8046875 C-5.19514399 0.05160419 -2.92424374 -0.16215769 0 0 Z " fill="#3E2210" transform="translate(555,570)"/>
<path d="M0 0 C0.66 0.33 1.32 0.66 2 1 C0.04808712 3.17277152 -1.91097537 5.33822461 -3.875 7.5 C-4.43058594 8.12003906 -4.98617187 8.74007813 -5.55859375 9.37890625 C-6.09355469 9.96542969 -6.62851562 10.55195312 -7.1796875 11.15625 C-7.67194824 11.70087891 -8.16420898 12.24550781 -8.67138672 12.80664062 C-10 14 -10 14 -12 14 C-11.67 13.01 -11.34 12.02 -11 11 C-10.34 11 -9.68 11 -9 11 C-9 10.34 -9 9.68 -9 9 C-7.125 6.875 -7.125 6.875 -5 5 C-4.34 5 -3.68 5 -3 5 C-2.87625 4.360625 -2.7525 3.72125 -2.625 3.0625 C-2.41875 2.381875 -2.2125 1.70125 -2 1 C-1.34 0.67 -0.68 0.34 0 0 Z " fill="#3E210E" transform="translate(730,502)"/>
<path d="M0 0 C0 3 0 3 -1.9375 5.6875 C-6.03434585 8.78103666 -9.04411893 8.48587069 -14 8 C-14 7.34 -14 6.68 -14 6 C-10.7 5.67 -7.4 5.34 -4 5 C-4 4.34 -4 3.68 -4 3 C-3.34 3 -2.68 3 -2 3 C-2 2.34 -2 1.68 -2 1 C-1.34 0.67 -0.68 0.34 0 0 Z " fill="#CCA17A" transform="translate(715,492)"/>
<path d="M0 0 C0.66 0 1.32 0 2 0 C1.39644592 3.85025879 0.23227397 6.86101159 -1.5625 10.3125 C-2.01753906 11.19550781 -2.47257812 12.07851563 -2.94140625 12.98828125 C-3.29074219 13.65214844 -3.64007813 14.31601562 -4 15 C-4.66 15 -5.32 15 -6 15 C-4.40109514 9.80355921 -2.25861997 4.93387858 0 0 Z " fill="#C69D76" transform="translate(47,402)"/>
<path d="M0 0 C0.66 0.33 1.32 0.66 2 1 C0.25192871 6.46737191 -1.65794081 11.75824848 -4 17 C-4.66 17 -5.32 17 -6 17 C-4.13236819 11.27789404 -2.14710968 5.62338249 0 0 Z " fill="#3B210C" transform="translate(45,401)"/>
<path d="M0 0 C-6.04617311 3.14619868 -12.08847232 5.53165598 -19 5 C-15.83648952 2.89099301 -13.11959156 1.9415843 -9.5 0.8125 C-7.78296875 0.26529297 -7.78296875 0.26529297 -6.03125 -0.29296875 C-3 -1 -3 -1 0 0 Z " fill="#C49B73" transform="translate(567,378)"/>
<path d="M0 0 C5.81266619 0.78549543 11.36877624 2.40682459 17 4 C16.67 4.66 16.34 5.32 16 6 C10.30860098 4.90301833 5.25432063 3.45946923 0 1 C0 0.67 0 0.34 0 0 Z " fill="#4D2F18" transform="translate(170,339)"/>
<path d="M0 0 C1.70840281 1.63412443 2.93453047 2.86906094 4 5 C6.64 4.67 9.28 4.34 12 4 C12.33 4.66 12.66 5.32 13 6 C8.97849859 7.58989591 6.14070449 8.61027397 2 7 C0.2058242 4.43689172 0 3.16880694 0 0 Z " fill="#CCA27B" transform="translate(516,555)"/>
<path d="M0 0 C1.17046875 0.03609375 2.3409375 0.0721875 3.546875 0.109375 C4.43890625 0.15578125 5.3309375 0.2021875 6.25 0.25 C6.25 0.58 6.25 0.91 6.25 1.25 C5.66992188 1.27578125 5.08984375 1.3015625 4.4921875 1.328125 C-1.1208394 1.73567151 -4.33877555 2.74364211 -8.75 6.25 C-9.41 5.59 -10.07 4.93 -10.75 4.25 C-7.43152371 0.07726249 -5.22729025 -0.20909161 0 0 Z " fill="#41250F" transform="translate(808.75,453.75)"/>
<path d="M0 0 C3.40490058 0.25221486 4.16501243 1.18563899 6.5 3.8125 C6.91636719 4.34746094 7.33273437 4.88242187 7.76171875 5.43359375 C9.35578563 7.45006321 11.15044998 9.21895183 13 11 C10 11 10 11 8.39453125 9.7578125 C7.87246094 9.21898437 7.35039062 8.68015625 6.8125 8.125 C6.28269531 7.59132813 5.75289063 7.05765625 5.20703125 6.5078125 C4 5 4 5 4 3 C2.68 2.34 1.36 1.68 0 1 C0 0.67 0 0.34 0 0 Z " fill="#533319" transform="translate(279,538)"/>
<path d="M0 0 C0.85722656 0.02835937 1.71445312 0.05671875 2.59765625 0.0859375 C3.45230469 0.09882813 4.30695312 0.11171875 5.1875 0.125 C7.74089854 0.47190723 9.44487606 1.1759722 11.66015625 2.4609375 C10.85191406 2.43773437 10.04367187 2.41453125 9.2109375 2.390625 C8.14230469 2.37257813 7.07367187 2.35453125 5.97265625 2.3359375 C4.91691406 2.31273437 3.86117187 2.28953125 2.7734375 2.265625 C-0.36236234 2.46235021 -2.51629748 3.13036096 -5.33984375 4.4609375 C-3.00813026 0.5925866 -3.00813026 0.5925866 0 0 Z " fill="#B68A65" transform="translate(739.33984375,496.5390625)"/>
<path d="M0 0 C11.63856502 -0.92017937 11.63856502 -0.92017937 14.9765625 1.3359375 C16.3125 3 16.3125 3 18 6 C17.01 6.495 17.01 6.495 16 7 C16 6.34 16 5.68 16 5 C15.34 5 14.68 5 14 5 C14 4.34 14 3.68 14 3 C9.38 2.34 4.76 1.68 0 1 C0 0.67 0 0.34 0 0 Z " fill="#3C210A" transform="translate(37,454)"/>
<path d="M0 0 C-2.31005869 2.31005869 -3.83083657 2.72174103 -6.9375 3.625 C-8.25041016 4.01558594 -8.25041016 4.01558594 -9.58984375 4.4140625 C-12 5 -12 5 -15 5 C-15 4.34 -15 3.68 -15 3 C-13.44033782 2.491217 -11.87710759 1.99336531 -10.3125 1.5 C-9.44238281 1.2215625 -8.57226562 0.943125 -7.67578125 0.65625 C-5.00608323 0.00149195 -2.73603316 -0.11831495 0 0 Z " fill="#3C210D" transform="translate(743,320)"/>
<path d="M0 0 C4.83628305 0.99043705 9.47618873 1.95698846 14 4 C14 4.66 14 5.32 14 6 C12.41531323 5.54636829 10.83230076 5.08688548 9.25 4.625 C8.36828125 4.36976563 7.4865625 4.11453125 6.578125 3.8515625 C4.23919428 3.0790066 2.16557438 2.16374324 0 1 C0 0.67 0 0.34 0 0 Z " fill="#CDA47B" transform="translate(293,776)"/>
<path d="M0 0 C2.97 0.495 2.97 0.495 6 1 C4.55049545 4.7910119 2.84827434 8.3874638 1 12 C0.34 12 -0.32 12 -1 12 C-0.690625 11.278125 -0.38125 10.55625 -0.0625 9.8125 C0.93942963 7.16033333 1.69532299 4.8182623 2 2 C1.34 1.34 0.68 0.68 0 0 Z " fill="#D3AB83" transform="translate(407,416)"/>
<path d="M0 0 C5.45479185 0.56820748 9.91059256 1.94637945 15 4 C15 4.33 15 4.66 15 5 C9.33557626 4.63495936 4.99296295 3.9445679 0 1 C0 0.67 0 0.34 0 0 Z " fill="#DAAE81" transform="translate(302,383)"/>
<path d="M0 0 C0.33 0.66 0.66 1.32 1 2 C-0.07507629 3.29854721 -1.16043736 4.58858361 -2.25 5.875 C-2.85328125 6.59429687 -3.4565625 7.31359375 -4.078125 8.0546875 C-5.97087634 9.97052118 -7.53657727 10.96449045 -10 12 C-3.84965831 3.55353075 -3.84965831 3.55353075 0 0 Z " fill="#4F3017" transform="translate(725,483)"/>
<path d="M0 0 C5.94 2.475 5.94 2.475 12 5 C12 5.66 12 6.32 12 7 C10.39253944 6.57476184 8.78910164 6.13429874 7.1875 5.6875 C6.29417969 5.44386719 5.40085937 5.20023438 4.48046875 4.94921875 C1.94752262 3.9799181 0.7283504 3.04990396 -1 1 C-0.67 0.67 -0.34 0.34 0 0 Z " fill="#CEA57D" transform="translate(373,804)"/>
<path d="M0 0 C4.29 0.33 8.58 0.66 13 1 C13 1.33 13 1.66 13 2 C11.75283203 2.05607422 11.75283203 2.05607422 10.48046875 2.11328125 C9.39378906 2.17902344 8.30710937 2.24476563 7.1875 2.3125 C5.56908203 2.39951172 5.56908203 2.39951172 3.91796875 2.48828125 C0.75390454 3.0431573 0.01193847 3.63264023 -2 6 C-2.66 6 -3.32 6 -4 6 C-4 5.34 -4 4.68 -4 4 C-3.34 4 -2.68 4 -2 4 C-1.34 2.68 -0.68 1.36 0 0 Z " fill="#56361D" transform="translate(683,515)"/>
<path d="M0 0 C4.96916636 0.51405169 9.29026351 1.23384882 14 3 C11 5 11 5 9 5 C9 4.34 9 3.68 9 3 C6.03 2.67 3.06 2.34 0 2 C0 1.34 0 0.68 0 0 Z " fill="#7E7269" transform="translate(469,12)"/>
<path d="M0 0 C1.00289063 0.28746094 2.00578125 0.57492187 3.0390625 0.87109375 C3.80992187 1.09925781 4.58078125 1.32742188 5.375 1.5625 C5.045 2.2225 4.715 2.8825 4.375 3.5625 C2.9358866 3.27890113 1.49874482 2.98528601 0.0625 2.6875 C-0.73800781 2.52507813 -1.53851563 2.36265625 -2.36328125 2.1953125 C-4.625 1.5625 -4.625 1.5625 -7.625 -0.4375 C-4.72405209 -1.88797396 -3.06527404 -0.89106803 0 0 Z " fill="#4A2D18" transform="translate(314.625,574.4375)"/>
<path d="M0 0 C2.47859908 2.2008849 3.61210366 4.06372969 4.6875 7.1875 C4.93886719 7.90292969 5.19023438 8.61835938 5.44921875 9.35546875 C5.63097656 9.89816406 5.81273437 10.44085938 6 11 C5.01 11.495 5.01 11.495 4 12 C3.32645501 10.56570999 2.66140299 9.12742943 2 7.6875 C1.62875 6.88699219 1.2575 6.08648437 0.875 5.26171875 C0 3 0 3 0 0 Z " fill="#4A2A13" transform="translate(767,315)"/>
<path d="M0 0 C2.18975773 3.28463659 2.99806563 6.20696275 4 10 C3.34 10.66 2.68 11.32 2 12 C0 10 0 10 -0.1953125 7.6171875 C-0.17210938 6.71226562 -0.14890625 5.80734375 -0.125 4.875 C-0.10695312 3.96492188 -0.08890625 3.05484375 -0.0703125 2.1171875 C-0.04710938 1.41851562 -0.02390625 0.71984375 0 0 Z " fill="#544A42" transform="translate(1,458)"/>
<path d="M0 0 C-7.5 5 -7.5 5 -11 5 C-9.07089686 -0.78730941 -5.38986894 -0.20339128 0 0 Z " fill="#4C3D32" transform="translate(462,246)"/>
<path d="M0 0 C0.33 0.99 0.66 1.98 1 3 C0.07421875 4.82421875 0.07421875 4.82421875 -1.3125 6.6875 C-1.76238281 7.31011719 -2.21226562 7.93273437 -2.67578125 8.57421875 C-3.11277344 9.04472656 -3.54976563 9.51523438 -4 10 C-4.66 10 -5.32 10 -6 10 C-4.79157144 5.56909529 -3.48331435 3.01887244 0 0 Z " fill="#45362B" transform="translate(481,181)"/>
<path d="M0 0 C0.66 0 1.32 0 2 0 C1.69381595 3.67420866 1.24228216 4.78135513 -1.5625 7.3125 C-2.366875 7.869375 -3.17125 8.42625 -4 9 C-4 7.68 -4 6.36 -4 5 C-3.01 5 -2.02 5 -1 5 C-0.67 3.35 -0.34 1.7 0 0 Z " fill="#D0A57C" transform="translate(758,696)"/>
<path d="M0 0 C0.33 0.99 0.66 1.98 1 3 C-4.75 8 -4.75 8 -7 8 C-7 7.01 -7 6.02 -7 5 C-4.625 3.4375 -4.625 3.4375 -2 2 C-1.34 1.34 -0.68 0.68 0 0 Z " fill="#584B41" transform="translate(801,480)"/>
<path d="M0 0 C4.29238623 1.65091778 6.8793915 4.73754566 10 8 C9.67 8.99 9.34 9.98 9 11 C7.87278564 9.73113036 6.74831342 8.45982438 5.625 7.1875 C4.99851562 6.47980469 4.37203125 5.77210937 3.7265625 5.04296875 C2 3 2 3 0 0 Z " fill="#EAE9E7" transform="translate(542,76)"/>
<path d="M0 0 C0.66 0.66 1.32 1.32 2 2 C0.35 5.3 -1.3 8.6 -3 12 C-3.33 12 -3.66 12 -4 12 C-4.61528766 6.92387682 -2.61658349 4.17017994 0 0 Z " fill="#CCA279" transform="translate(340,545)"/>
<path d="M0 0 C3.55780196 0.60990891 6.6828589 1.5783681 10 3 C10 3.66 10 4.32 10 5 C6.44219804 4.39009109 3.3171411 3.4216319 0 2 C0 1.34 0 0.68 0 0 Z " fill="#C9A079" transform="translate(68,471)"/>
<path d="M0 0 C1.70401547 2.60614131 2.00613718 3.89975932 1.8125 7.0625 C0.9940468 10.02152312 0.37339853 11.14255768 -2 13 C-2 11.68 -2 10.36 -2 9 C-1.34 9 -0.68 9 0 9 C-0.185625 8.2575 -0.37125 7.515 -0.5625 6.75 C-0.99203108 4.05009037 -0.85122974 2.55368923 0 0 Z " fill="#756A63" transform="translate(850,458)"/>
<path d="M0 0 C-3.28463659 2.18975773 -6.20696275 2.99806563 -10 4 C-9 1 -9 1 -7.25 -0.25 C-4.47275102 -1.17574966 -2.78428335 -0.77341204 0 0 Z " fill="#63584F" transform="translate(675,754)"/>
<path d="M0 0 C1.32 0 2.64 0 4 0 C4 0.66 4 1.32 4 2 C-0.95 3.485 -0.95 3.485 -6 5 C-6 4.34 -6 3.68 -6 3 C-4.02 2.67 -2.04 2.34 0 2 C0 1.34 0 0.68 0 0 Z " fill="#D2A77D" transform="translate(708,719)"/>
<path d="M0 0 C0.66 0 1.32 0 2 0 C5.22265625 5.17578125 5.22265625 5.17578125 6 7 C5.67 7.99 5.34 8.98 5 10 C4.16121545 8.71186658 3.32913217 7.41936744 2.5 6.125 C2.0359375 5.40570312 1.571875 4.68640625 1.09375 3.9453125 C0 2 0 2 0 0 Z " fill="#442712" transform="translate(489,545)"/>
<path d="M0 0 C4.55015893 1.51671964 6.50057264 5.16891053 9 9 C5.18063472 7.44396229 2.73955562 5.04395069 0 2 C0 1.34 0 0.68 0 0 Z " fill="#A47C5B" transform="translate(121,505)"/>
<path d="M0 0 C0.66 0 1.32 0 2 0 C1.35494404 3.48330216 0.01782732 6.09432866 -2 9 C-2.66 9 -3.32 9 -4 9 C-2.80100302 5.9168649 -1.52299523 2.93720508 0 0 Z " fill="#482B13" transform="translate(371,493)"/>
<path d="M0 0 C0.66 0 1.32 0 2 0 C1.55090939 1.48199902 1.09043436 2.96055236 0.625 4.4375 C0.36976562 5.26121094 0.11453125 6.08492188 -0.1484375 6.93359375 C-1 9 -1 9 -3 10 C-2.49287967 6.28111761 -1.88391785 3.26545761 0 0 Z " fill="#41240E" transform="translate(50,391)"/>
<path d="M0 0 C-1 2 -1 2 -3.8125 3.1875 C-6.85961076 3.96421451 -8.13749363 4.10096399 -11 3 C-4.5 0 -4.5 0 0 0 Z " fill="#DBAF85" transform="translate(531,389)"/>
<path d="M0 0 C-2.5654594 2.5654594 -4.47686668 2.54046087 -8 3 C-8 2.01 -8 1.02 -8 0 C-4.71303767 -0.79953138 -3.28976808 -1.09658936 0 0 Z " fill="#C99E77" transform="translate(538,557)"/>
<path d="M0 0 C-1.39332574 3.36720387 -2.9789286 4.9859524 -6 7 C-6.33 6.01 -6.66 5.02 -7 4 C-2.25 0 -2.25 0 0 0 Z " fill="#462914" transform="translate(631,539)"/>
<path d="M0 0 C0 0.66 0 1.32 0 2 C-2.64 2.99 -5.28 3.98 -8 5 C-8.66 4.34 -9.32 3.68 -10 3 C-3.375 0 -3.375 0 0 0 Z " fill="#4F321A" transform="translate(779,475)"/>
<path d="M0 0 C0 0.66 0 1.32 0 2 C-1.28745036 2.38922918 -2.58019597 2.76098036 -3.875 3.125 C-4.59429688 3.33382813 -5.31359375 3.54265625 -6.0546875 3.7578125 C-6.69664062 3.83773438 -7.33859375 3.91765625 -8 4 C-8.66 3.34 -9.32 2.68 -10 2 C-3.375 0 -3.375 0 0 0 Z " fill="#51443C" transform="translate(517,373)"/>
<path d="M0 0 C3.37503669 1.1858237 5.64722731 2.27573689 8 5 C7.01 5.495 7.01 5.495 6 6 C6 5.34 6 4.68 6 4 C3.03 3.505 3.03 3.505 0 3 C0 2.01 0 1.02 0 0 Z " fill="#594D45" transform="translate(520,33)"/>
<path d="M0 0 C0 0.66 0 1.32 0 2 C-7.42857143 3.28571429 -7.42857143 3.28571429 -11 2 C-7.12315913 0.80712589 -4.08378077 0 0 0 Z " fill="#74675E" transform="translate(387,11)"/>
<path d="M0 0 C2.32472205 2.85306797 3.7508258 5.54074837 5 9 C2 8 2 8 0 5 C-0.125 2.3125 -0.125 2.3125 0 0 Z " fill="#492B14" transform="translate(481,494)"/>
<path d="M0 0 C7.42857143 -0.28571429 7.42857143 -0.28571429 11 2 C6.70700357 3.26264601 4.12168689 2.62950412 0 1 C0 0.67 0 0.34 0 0 Z " fill="#54351C" transform="translate(392,410)"/>
<path d="M0 0 C0.66 0.99 1.32 1.98 2 3 C0.61410019 6.09162264 -0.49183541 7.49183541 -3 10 C-2.01 6.7 -1.02 3.4 0 0 Z " fill="#6F655D" transform="translate(251,132)"/>
<path d="M0 0 C4.455 0.99 4.455 0.99 9 2 C9 2.66 9 3.32 9 4 C5.65626525 3.44271087 2.96687001 2.64826111 0 1 C0 0.67 0 0.34 0 0 Z " fill="#CBA37C" transform="translate(274,769)"/>
<path d="M0 0 C5.75 0.875 5.75 0.875 8 2 C8 2.66 8 3.32 8 4 C5.36 3.34 2.72 2.68 0 2 C0 1.34 0 0.68 0 0 Z " fill="#C79D76" transform="translate(199,741)"/>
<path d="M0 0 C0.99 0 1.98 0 3 0 C2 3 2 3 0.125 4.25 C-2 5 -2 5 -5 4 C-3.35 3.34 -1.7 2.68 0 2 C0 1.34 0 0.68 0 0 Z " fill="#482912" transform="translate(567,563)"/>
<path d="M0 0 C0.66 0 1.32 0 2 0 C1.45276317 3.37462715 0.9451 5.08235 -1 8 C-1.66 7.67 -2.32 7.34 -3 7 C-2.01 4.69 -1.02 2.38 0 0 Z " fill="#D7AD82" transform="translate(334,555)"/>
<path d="M0 0 C0.33 0.66 0.66 1.32 1 2 C1.66 2.33 2.32 2.66 3 3 C3.66 3.66 4.32 4.32 5 5 C4.625 7.125 4.625 7.125 4 9 C1.49701566 6.06171403 0.53069061 3.82097239 0 0 Z " fill="#D0A57C" transform="translate(492,511)"/>
<path d="M0 0 C1.52519276 0.08937803 3.04681929 0.24537146 4.5625 0.4375 C5.80193359 0.59025391 5.80193359 0.59025391 7.06640625 0.74609375 C7.70449219 0.82988281 8.34257813 0.91367187 9 1 C9 1.33 9 1.66 9 2 C6.02148438 2.29296875 6.02148438 2.29296875 3.04296875 2.5859375 C0.70011858 2.92665391 0.70011858 2.92665391 -2 5 C-1.125 1.125 -1.125 1.125 0 0 Z " fill="#5D3A21" transform="translate(736,495)"/>
<path d="M0 0 C1 3 1 3 -0.4375 6.1875 C-1.2109375 7.5796875 -1.2109375 7.5796875 -2 9 C-2.66 8.67 -3.32 8.34 -4 8 C-2.87548273 5.0280615 -1.77706209 2.66559313 0 0 Z " fill="#D8AE82" transform="translate(374,484)"/>
<path d="M0 0 C1 3 1 3 0.1875 5.625 C-1 8 -1 8 -3 9 C-2.5020163 5.26512223 -2.12508244 3.18762365 0 0 Z " fill="#492C15" transform="translate(396,448)"/>
<path d="M0 0 C-2.59482129 2.59482129 -4.39883625 2.69990302 -8 3 C-8.66 2.34 -9.32 1.68 -10 1 C-3.375 -1.125 -3.375 -1.125 0 0 Z " fill="#54341A" transform="translate(529,388)"/>
<path d="M0 0 C1.4540625 0.0309375 1.4540625 0.0309375 2.9375 0.0625 C0.53986815 2.46013185 -0.39523498 2.40530586 -3.6875 2.6875 C-4.50476563 2.76226562 -5.32203125 2.83703125 -6.1640625 2.9140625 C-6.79054688 2.96304687 -7.41703125 3.01203125 -8.0625 3.0625 C-7.423125 2.753125 -6.78375 2.44375 -6.125 2.125 C-2.0825 0.0425 -2.0825 0.0425 0 0 Z " fill="#3C220C" transform="translate(578.0625,370.9375)"/>
<path d="M0 0 C-2.5654594 2.5654594 -4.47686668 2.54046087 -8 3 C-8.33 2.34 -8.66 1.68 -9 1 C-5.57367167 -0.61798838 -3.61944899 -1.34053666 0 0 Z " fill="#4F3117" transform="translate(611,362)"/>
<path d="M0 0 C-2.59482129 2.59482129 -4.39883625 2.69990302 -8 3 C-8.66 2.34 -9.32 1.68 -10 1 C-3.375 -1.125 -3.375 -1.125 0 0 Z " fill="#472C14" transform="translate(649,350)"/>
</svg>
